<svg width="20" height="20" viewBox="0 0 20 20" fill="none" xmlns="http://www.w3.org/2000/svg">
<path d="M10 0C4.47727 0 0 4.47727 0 10C0 15.5227 4.47727 20 10 20C15.5227 20 20 15.5227 20 10C20 4.47727 15.5227 0 10 0ZM10 18.3333C5.39773 18.3333 1.66668 14.6023 1.66668 10C1.66668 5.39773 5.39773 1.66668 10 1.66668C14.6023 1.66668 18.3333 5.39773 18.3333 10C18.3333 14.6023 14.6023 18.3333 10 18.3333Z" fill="#20304F"/>
<path d="M12.2611 5.24407C11.9357 4.91864 11.4081 4.91864 11.0826 5.24407L6.91595 9.41075C6.59052 9.73618 6.59052 10.2638 6.91595 10.5893L11.0826 14.7559C11.4081 15.0814 11.9357 15.0814 12.2611 14.7559C12.5866 14.4305 12.5866 13.9029 12.2611 13.5774L8.68372 10L12.2611 6.42259C12.5866 6.09716 12.5866 5.56954 12.2611 5.24407Z" fill="#20304F"/>
</svg>
