<svg width="20" height="20" viewBox="0 0 20 20" fill="none" xmlns="http://www.w3.org/2000/svg">
<g clip-path="url(#clip0_20151_3384)">
<path d="M16.6667 7.5H9.16667C8.24619 7.5 7.5 8.24619 7.5 9.16667V16.6667C7.5 17.5871 8.24619 18.3333 9.16667 18.3333H16.6667C17.5871 18.3333 18.3333 17.5871 18.3333 16.6667V9.16667C18.3333 8.24619 17.5871 7.5 16.6667 7.5Z" stroke="#FFFFFF" stroke-width="2" stroke-linecap="round" stroke-linejoin="round"/>
<path d="M4.16602 12.5003H3.33268C2.89065 12.5003 2.46673 12.3247 2.15417 12.0122C1.84161 11.6996 1.66602 11.2757 1.66602 10.8337V3.33366C1.66602 2.89163 1.84161 2.46771 2.15417 2.15515C2.46673 1.84259 2.89065 1.66699 3.33268 1.66699H10.8327C11.2747 1.66699 11.6986 1.84259 12.0112 2.15515C12.3238 2.46771 12.4993 2.89163 12.4993 3.33366V4.16699" stroke="#FFFFFF" stroke-width="2" stroke-linecap="round" stroke-linejoin="round"/>
</g>
<defs>
<clipPath id="clip0_20151_3384">
<rect width="20" height="20" fill="white"/>
</clipPath>
</defs>
</svg>
