<svg width="22" height="22" viewBox="0 0 22 22" fill="none" xmlns="http://www.w3.org/2000/svg">
<mask id="path-1-outside-1_19607_18137" maskUnits="userSpaceOnUse" x="0" y="0" width="22" height="22" fill="black">
<rect fill="white" width="22" height="22"/>
<path d="M7.27907 15.186H6.5814C6.58146 15.3061 6.61247 15.424 6.67144 15.5285C6.73042 15.6331 6.81535 15.7206 6.91804 15.7827C7.02073 15.8448 7.13771 15.8794 7.25766 15.883C7.37761 15.8867 7.49648 15.8594 7.60279 15.8037L7.27907 15.186ZM1 20.3023C1 20.4874 1.0735 20.6648 1.20434 20.7957C1.33518 20.9265 1.51264 21 1.69767 21C1.88271 21 2.06017 20.9265 2.191 20.7957C2.32184 20.6648 2.39535 20.4874 2.39535 20.3023H1ZM10.2958 13.6047L10.6195 14.2223L10.6456 14.2093L10.6707 14.1935L10.2958 13.6047ZM11.7358 15.8884L12.0642 16.5051L12.0856 16.493L12.106 16.48L11.7358 15.8884ZM7.98977 17.8809L7.66233 17.2651L7.64093 17.2772L7.62046 17.2893L7.98977 17.8809ZM5.09395 15.3051C4.99985 15.1491 4.84847 15.0361 4.67216 14.9903C4.49585 14.9444 4.30859 14.9694 4.15042 15.0597C3.99225 15.1501 3.8757 15.2988 3.82569 15.474C3.77568 15.6492 3.79617 15.8369 3.88279 15.9972L5.09395 15.3051ZM7.97674 18.4419C7.97674 18.2568 7.90324 18.0794 7.7724 17.9485C7.64156 17.8177 7.4641 17.7442 7.27907 17.7442C7.09404 17.7442 6.91658 17.8177 6.78574 17.9485C6.6549 18.0794 6.5814 18.2568 6.5814 18.4419H7.97674ZM6.5814 20.3023C6.5814 20.4874 6.6549 20.6648 6.78574 20.7957C6.91658 20.9265 7.09404 21 7.27907 21C7.4641 21 7.64156 20.9265 7.7724 20.7957C7.90324 20.6648 7.97674 20.4874 7.97674 20.3023H6.5814ZM11.8065 12.9507L11.4326 13.5395L12.6093 14.2884L12.9842 13.7005L11.8065 12.9507ZM16.24 8.58419C16.2892 8.50686 16.3227 8.42059 16.3386 8.33031C16.3545 8.24003 16.3525 8.1475 16.3326 8.05801C16.3127 7.96852 16.2755 7.88382 16.2228 7.80875C16.1702 7.73367 16.1034 7.6697 16.026 7.62046C15.9487 7.57123 15.8625 7.53772 15.7722 7.52183C15.6819 7.50593 15.5894 7.50798 15.4999 7.52785C15.4104 7.54772 15.3257 7.58502 15.2506 7.63762C15.1755 7.69022 15.1116 7.75709 15.0623 7.83442L16.24 8.58419ZM4.72093 4.02326C4.72093 4.20829 4.79444 4.38575 4.92527 4.51659C5.05611 4.64743 5.23357 4.72093 5.4186 4.72093C5.60364 4.72093 5.7811 4.64743 5.91194 4.51659C6.04277 4.38575 6.11628 4.20829 6.11628 4.02326H4.72093ZM17.5116 10.3023C17.3266 10.3023 17.1491 10.3758 17.0183 10.5067C16.8875 10.6375 16.814 10.815 16.814 11C16.814 11.185 16.8875 11.3625 17.0183 11.4933C17.1491 11.6242 17.3266 11.6977 17.5116 11.6977V10.3023ZM9.13953 4.72093C8.9545 4.72093 8.77704 4.79444 8.6462 4.92527C8.51537 5.05611 8.44186 5.23357 8.44186 5.4186C8.44186 5.60364 8.51537 5.7811 8.6462 5.91194C8.77704 6.04277 8.9545 6.11628 9.13953 6.11628V4.72093ZM16.5814 6.11628C16.7664 6.11628 16.9439 6.04277 17.0747 5.91194C17.2056 5.7811 17.2791 5.60364 17.2791 5.4186C17.2791 5.23357 17.2056 5.05611 17.0747 4.92527C16.9439 4.79444 16.7664 4.72093 16.5814 4.72093V6.11628ZM9.13953 7.51163C8.9545 7.51163 8.77704 7.58513 8.6462 7.71597C8.51537 7.84681 8.44186 8.02427 8.44186 8.2093C8.44186 8.39434 8.51537 8.57179 8.6462 8.70263C8.77704 8.83347 8.9545 8.90698 9.13953 8.90698V7.51163ZM12.8605 8.90698C13.0455 8.90698 13.223 8.83347 13.3538 8.70263C13.4846 8.57179 13.5581 8.39434 13.5581 8.2093C13.5581 8.02427 13.4846 7.84681 13.3538 7.71597C13.223 7.58513 13.0455 7.51163 12.8605 7.51163V8.90698ZM5.65116 8.2093C5.65116 8.85116 5.13023 9.37209 4.48837 9.37209V10.7674C5.16683 10.7674 5.81751 10.4979 6.29725 10.0182C6.77699 9.53844 7.04651 8.88776 7.04651 8.2093H5.65116ZM4.48837 9.37209C3.84651 9.37209 3.32558 8.85116 3.32558 8.2093H1.93023C1.93023 8.88776 2.19975 9.53844 2.67949 10.0182C3.15924 10.4979 3.80991 10.7674 4.48837 10.7674V9.37209ZM3.32558 8.2093C3.32558 7.56744 3.84651 7.04651 4.48837 7.04651V5.65116C3.80991 5.65116 3.15924 5.92068 2.67949 6.40042C2.19975 6.88017 1.93023 7.53084 1.93023 8.2093H3.32558ZM4.48837 7.04651C5.13023 7.04651 5.65116 7.56744 5.65116 8.2093H7.04651C7.04651 7.53084 6.77699 6.88017 6.29725 6.40042C5.81751 5.92068 5.16683 5.65116 4.48837 5.65116V7.04651ZM7.97674 15.186V14.7209H6.5814V15.186H7.97674ZM1 14.7209V20.3023H2.39535V14.7209H1ZM7.60279 15.8037L10.6195 14.2223L9.97209 12.987L6.95535 14.5684L7.60279 15.8037ZM11.4084 15.2735L7.66233 17.2651L8.31721 18.4967L12.0642 16.5051L11.4084 15.2735ZM5.99535 16.8791L5.09488 15.3042L3.88372 15.9963L4.78419 17.5721L5.99535 16.8791ZM10.6716 14.1926C10.7451 14.1457 10.8272 14.114 10.913 14.0994C10.9989 14.0848 11.0869 14.0876 11.1717 14.1075C11.2565 14.1274 11.3364 14.1642 11.4068 14.2155C11.4772 14.2669 11.5365 14.3318 11.5814 14.4065L12.7777 13.6893C12.637 13.4548 12.4507 13.2508 12.2299 13.0895C12.0091 12.9281 11.7582 12.8126 11.492 12.7497C11.2259 12.6868 10.9498 12.6779 10.6801 12.7235C10.4104 12.769 10.1526 12.8681 9.92186 13.0149L10.6716 14.1926ZM7.62046 17.2893C7.48772 17.3722 7.33962 17.4264 7.18503 17.4507C7.03045 17.4749 6.87255 17.4677 6.72081 17.4295C6.56908 17.3913 6.42661 17.3229 6.30195 17.2283C6.1773 17.1337 6.07301 17.0149 5.99535 16.8791L4.78419 17.5721C4.95512 17.8711 5.18467 18.1325 5.45907 18.3406C5.73347 18.5487 6.04706 18.6993 6.38106 18.7833C6.71506 18.8673 7.06258 18.883 7.40279 18.8294C7.743 18.7759 8.06889 18.6542 8.36093 18.4716L7.62046 17.2893ZM2.39535 14.7209C2.39535 14.1658 2.61586 13.6335 3.00838 13.2409C3.4009 12.8484 3.93327 12.6279 4.48837 12.6279V11.2326C3.5632 11.2326 2.67592 11.6001 2.02172 12.2543C1.36752 12.9085 1 13.7958 1 14.7209H2.39535ZM11.5805 14.4084C11.6681 14.555 11.6947 14.7301 11.6548 14.8962C11.6148 15.0623 11.5113 15.2061 11.3665 15.2967L12.106 16.48C12.561 16.1953 12.8861 15.7434 13.0114 15.2216C13.1366 14.6997 13.052 14.1495 12.7758 13.6893L11.5805 14.4084ZM7.97674 14.7209C7.97674 14.2628 7.88651 13.8092 7.71121 13.386C7.5359 12.9628 7.27895 12.5782 6.95502 12.2543C6.6311 11.9304 6.24654 11.6734 5.82331 11.4981C5.40009 11.3228 4.94647 11.2326 4.48837 11.2326V12.6279C5.04348 12.6279 5.57584 12.8484 5.96836 13.2409C6.36088 13.6335 6.5814 14.1658 6.5814 14.7209H7.97674ZM6.5814 18.4419V20.3023H7.97674V18.4419H6.5814ZM12.9842 13.7005L16.24 8.58419L15.0623 7.83442L11.8065 12.9507L12.9842 13.7005ZM6.11628 4.02326V3.55814H4.72093V4.02326H6.11628ZM7.27907 2.39535H18.4419V1H7.27907V2.39535ZM19.6047 3.55814V9.13953H21V3.55814H19.6047ZM18.4419 10.3023H17.5116V11.6977H18.4419V10.3023ZM19.6047 9.13953C19.6047 9.7814 19.0837 10.3023 18.4419 10.3023V11.6977C19.1203 11.6977 19.771 11.4282 20.2507 10.9484C20.7305 10.4687 21 9.818 21 9.13953H19.6047ZM18.4419 2.39535C19.0837 2.39535 19.6047 2.91628 19.6047 3.55814H21C21 2.87968 20.7305 2.22901 20.2507 1.74926C19.771 1.26952 19.1203 1 18.4419 1V2.39535ZM6.11628 3.55814C6.11628 2.91628 6.63721 2.39535 7.27907 2.39535V1C6.60061 1 5.94994 1.26952 5.47019 1.74926C4.99045 2.22901 4.72093 2.87968 4.72093 3.55814H6.11628ZM9.13953 6.11628H16.5814V4.72093H9.13953V6.11628ZM9.13953 8.90698H12.8605V7.51163H9.13953V8.90698Z"/>
</mask>
<path d="M7.27907 15.186H6.5814C6.58146 15.3061 6.61247 15.424 6.67144 15.5285C6.73042 15.6331 6.81535 15.7206 6.91804 15.7827C7.02073 15.8448 7.13771 15.8794 7.25766 15.883C7.37761 15.8867 7.49648 15.8594 7.60279 15.8037L7.27907 15.186ZM1 20.3023C1 20.4874 1.0735 20.6648 1.20434 20.7957C1.33518 20.9265 1.51264 21 1.69767 21C1.88271 21 2.06017 20.9265 2.191 20.7957C2.32184 20.6648 2.39535 20.4874 2.39535 20.3023H1ZM10.2958 13.6047L10.6195 14.2223L10.6456 14.2093L10.6707 14.1935L10.2958 13.6047ZM11.7358 15.8884L12.0642 16.5051L12.0856 16.493L12.106 16.48L11.7358 15.8884ZM7.98977 17.8809L7.66233 17.2651L7.64093 17.2772L7.62046 17.2893L7.98977 17.8809ZM5.09395 15.3051C4.99985 15.1491 4.84847 15.0361 4.67216 14.9903C4.49585 14.9444 4.30859 14.9694 4.15042 15.0597C3.99225 15.1501 3.8757 15.2988 3.82569 15.474C3.77568 15.6492 3.79617 15.8369 3.88279 15.9972L5.09395 15.3051ZM7.97674 18.4419C7.97674 18.2568 7.90324 18.0794 7.7724 17.9485C7.64156 17.8177 7.4641 17.7442 7.27907 17.7442C7.09404 17.7442 6.91658 17.8177 6.78574 17.9485C6.6549 18.0794 6.5814 18.2568 6.5814 18.4419H7.97674ZM6.5814 20.3023C6.5814 20.4874 6.6549 20.6648 6.78574 20.7957C6.91658 20.9265 7.09404 21 7.27907 21C7.4641 21 7.64156 20.9265 7.7724 20.7957C7.90324 20.6648 7.97674 20.4874 7.97674 20.3023H6.5814ZM11.8065 12.9507L11.4326 13.5395L12.6093 14.2884L12.9842 13.7005L11.8065 12.9507ZM16.24 8.58419C16.2892 8.50686 16.3227 8.42059 16.3386 8.33031C16.3545 8.24003 16.3525 8.1475 16.3326 8.05801C16.3127 7.96852 16.2755 7.88382 16.2228 7.80875C16.1702 7.73367 16.1034 7.6697 16.026 7.62046C15.9487 7.57123 15.8625 7.53772 15.7722 7.52183C15.6819 7.50593 15.5894 7.50798 15.4999 7.52785C15.4104 7.54772 15.3257 7.58502 15.2506 7.63762C15.1755 7.69022 15.1116 7.75709 15.0623 7.83442L16.24 8.58419ZM4.72093 4.02326C4.72093 4.20829 4.79444 4.38575 4.92527 4.51659C5.05611 4.64743 5.23357 4.72093 5.4186 4.72093C5.60364 4.72093 5.7811 4.64743 5.91194 4.51659C6.04277 4.38575 6.11628 4.20829 6.11628 4.02326H4.72093ZM17.5116 10.3023C17.3266 10.3023 17.1491 10.3758 17.0183 10.5067C16.8875 10.6375 16.814 10.815 16.814 11C16.814 11.185 16.8875 11.3625 17.0183 11.4933C17.1491 11.6242 17.3266 11.6977 17.5116 11.6977V10.3023ZM9.13953 4.72093C8.9545 4.72093 8.77704 4.79444 8.6462 4.92527C8.51537 5.05611 8.44186 5.23357 8.44186 5.4186C8.44186 5.60364 8.51537 5.7811 8.6462 5.91194C8.77704 6.04277 8.9545 6.11628 9.13953 6.11628V4.72093ZM16.5814 6.11628C16.7664 6.11628 16.9439 6.04277 17.0747 5.91194C17.2056 5.7811 17.2791 5.60364 17.2791 5.4186C17.2791 5.23357 17.2056 5.05611 17.0747 4.92527C16.9439 4.79444 16.7664 4.72093 16.5814 4.72093V6.11628ZM9.13953 7.51163C8.9545 7.51163 8.77704 7.58513 8.6462 7.71597C8.51537 7.84681 8.44186 8.02427 8.44186 8.2093C8.44186 8.39434 8.51537 8.57179 8.6462 8.70263C8.77704 8.83347 8.9545 8.90698 9.13953 8.90698V7.51163ZM12.8605 8.90698C13.0455 8.90698 13.223 8.83347 13.3538 8.70263C13.4846 8.57179 13.5581 8.39434 13.5581 8.2093C13.5581 8.02427 13.4846 7.84681 13.3538 7.71597C13.223 7.58513 13.0455 7.51163 12.8605 7.51163V8.90698ZM5.65116 8.2093C5.65116 8.85116 5.13023 9.37209 4.48837 9.37209V10.7674C5.16683 10.7674 5.81751 10.4979 6.29725 10.0182C6.77699 9.53844 7.04651 8.88776 7.04651 8.2093H5.65116ZM4.48837 9.37209C3.84651 9.37209 3.32558 8.85116 3.32558 8.2093H1.93023C1.93023 8.88776 2.19975 9.53844 2.67949 10.0182C3.15924 10.4979 3.80991 10.7674 4.48837 10.7674V9.37209ZM3.32558 8.2093C3.32558 7.56744 3.84651 7.04651 4.48837 7.04651V5.65116C3.80991 5.65116 3.15924 5.92068 2.67949 6.40042C2.19975 6.88017 1.93023 7.53084 1.93023 8.2093H3.32558ZM4.48837 7.04651C5.13023 7.04651 5.65116 7.56744 5.65116 8.2093H7.04651C7.04651 7.53084 6.77699 6.88017 6.29725 6.40042C5.81751 5.92068 5.16683 5.65116 4.48837 5.65116V7.04651ZM7.97674 15.186V14.7209H6.5814V15.186H7.97674ZM1 14.7209V20.3023H2.39535V14.7209H1ZM7.60279 15.8037L10.6195 14.2223L9.97209 12.987L6.95535 14.5684L7.60279 15.8037ZM11.4084 15.2735L7.66233 17.2651L8.31721 18.4967L12.0642 16.5051L11.4084 15.2735ZM5.99535 16.8791L5.09488 15.3042L3.88372 15.9963L4.78419 17.5721L5.99535 16.8791ZM10.6716 14.1926C10.7451 14.1457 10.8272 14.114 10.913 14.0994C10.9989 14.0848 11.0869 14.0876 11.1717 14.1075C11.2565 14.1274 11.3364 14.1642 11.4068 14.2155C11.4772 14.2669 11.5365 14.3318 11.5814 14.4065L12.7777 13.6893C12.637 13.4548 12.4507 13.2508 12.2299 13.0895C12.0091 12.9281 11.7582 12.8126 11.492 12.7497C11.2259 12.6868 10.9498 12.6779 10.6801 12.7235C10.4104 12.769 10.1526 12.8681 9.92186 13.0149L10.6716 14.1926ZM7.62046 17.2893C7.48772 17.3722 7.33962 17.4264 7.18503 17.4507C7.03045 17.4749 6.87255 17.4677 6.72081 17.4295C6.56908 17.3913 6.42661 17.3229 6.30195 17.2283C6.1773 17.1337 6.07301 17.0149 5.99535 16.8791L4.78419 17.5721C4.95512 17.8711 5.18467 18.1325 5.45907 18.3406C5.73347 18.5487 6.04706 18.6993 6.38106 18.7833C6.71506 18.8673 7.06258 18.883 7.40279 18.8294C7.743 18.7759 8.06889 18.6542 8.36093 18.4716L7.62046 17.2893ZM2.39535 14.7209C2.39535 14.1658 2.61586 13.6335 3.00838 13.2409C3.4009 12.8484 3.93327 12.6279 4.48837 12.6279V11.2326C3.5632 11.2326 2.67592 11.6001 2.02172 12.2543C1.36752 12.9085 1 13.7958 1 14.7209H2.39535ZM11.5805 14.4084C11.6681 14.555 11.6947 14.7301 11.6548 14.8962C11.6148 15.0623 11.5113 15.2061 11.3665 15.2967L12.106 16.48C12.561 16.1953 12.8861 15.7434 13.0114 15.2216C13.1366 14.6997 13.052 14.1495 12.7758 13.6893L11.5805 14.4084ZM7.97674 14.7209C7.97674 14.2628 7.88651 13.8092 7.71121 13.386C7.5359 12.9628 7.27895 12.5782 6.95502 12.2543C6.6311 11.9304 6.24654 11.6734 5.82331 11.4981C5.40009 11.3228 4.94647 11.2326 4.48837 11.2326V12.6279C5.04348 12.6279 5.57584 12.8484 5.96836 13.2409C6.36088 13.6335 6.5814 14.1658 6.5814 14.7209H7.97674ZM6.5814 18.4419V20.3023H7.97674V18.4419H6.5814ZM12.9842 13.7005L16.24 8.58419L15.0623 7.83442L11.8065 12.9507L12.9842 13.7005ZM6.11628 4.02326V3.55814H4.72093V4.02326H6.11628ZM7.27907 2.39535H18.4419V1H7.27907V2.39535ZM19.6047 3.55814V9.13953H21V3.55814H19.6047ZM18.4419 10.3023H17.5116V11.6977H18.4419V10.3023ZM19.6047 9.13953C19.6047 9.7814 19.0837 10.3023 18.4419 10.3023V11.6977C19.1203 11.6977 19.771 11.4282 20.2507 10.9484C20.7305 10.4687 21 9.818 21 9.13953H19.6047ZM18.4419 2.39535C19.0837 2.39535 19.6047 2.91628 19.6047 3.55814H21C21 2.87968 20.7305 2.22901 20.2507 1.74926C19.771 1.26952 19.1203 1 18.4419 1V2.39535ZM6.11628 3.55814C6.11628 2.91628 6.63721 2.39535 7.27907 2.39535V1C6.60061 1 5.94994 1.26952 5.47019 1.74926C4.99045 2.22901 4.72093 2.87968 4.72093 3.55814H6.11628ZM9.13953 6.11628H16.5814V4.72093H9.13953V6.11628ZM9.13953 8.90698H12.8605V7.51163H9.13953V8.90698Z" fill="#20304F"/>
<path d="M2.39535 20.2023H1V20.4023H2.39535V20.2023ZM5.43845 17.3138L6.04403 16.9678L5.9448 16.7941L5.33922 17.1402L5.43845 17.3138ZM12.2301 14.135L12.8282 13.776L12.7253 13.6045L12.1271 13.9636L12.2301 14.135ZM6.5814 18.5419H7.97674V18.3419H6.5814V18.5419ZM7.97674 20.2023H6.5814V20.4023H7.97674V20.2023ZM13.0379 13.6161L11.8602 12.8663L11.7528 13.0351L12.9305 13.7848L13.0379 13.6161ZM15.0086 7.91877L16.1863 8.66854L16.2937 8.49983L15.116 7.75006L15.0086 7.91877ZM6.11628 3.92326H4.72093V4.12326H6.11628V3.92326ZM17.6116 11.6977V10.3023H17.4116V11.6977H17.6116ZM9.23954 6.11628V4.72093H9.03954V6.11628H9.23954ZM16.4814 4.72093V6.11628H16.6814V4.72093H16.4814ZM9.23954 8.90698V7.51163H9.03954V8.90698H9.23954ZM12.7605 7.51163V8.90698H12.9605V7.51163H12.7605ZM4.38837 9.37209V10.7674H4.58837V9.37209H4.38837ZM7.04651 8.1093H5.65116V8.3093H7.04651V8.1093ZM3.32558 8.1093H1.93023V8.3093H3.32558V8.1093ZM4.58837 7.04651V5.65116H4.38837V7.04651H4.58837ZM7.97674 14.6209H6.5814V14.8209H7.97674V14.6209ZM2.39535 14.6209H1V14.8209H2.39535V14.6209ZM4.83385 17.6589L6.04501 16.9659L5.94568 16.7923L4.73452 17.4853L4.83385 17.6589ZM4.58837 12.6279V11.2326H4.38837V12.6279H4.58837ZM6.11628 3.45814H4.72093V3.65814H6.11628V3.45814ZM18.5419 2.39535V1H18.3419V2.39535H18.5419ZM7.17907 1V2.39535H7.37907V1H7.17907ZM19.6047 9.23954H21V9.03954H19.6047V9.23954ZM21 3.45814H19.6047V3.65814H21V3.45814ZM18.5419 11.6977V10.3023H18.3419V11.6977H18.5419ZM7.27907 15.186L7.45622 15.0932L7.40005 14.986H7.27907V15.186ZM6.5814 15.186H6.3814V15.1861L6.5814 15.186ZM7.60279 15.8037L7.69559 15.9809L7.69565 15.9809L7.60279 15.8037ZM10.2958 13.6047L10.4645 13.4972L10.1187 13.6975L10.2958 13.6047ZM10.6456 14.2093L10.735 14.3882L10.7438 14.3838L10.7521 14.3785L10.6456 14.2093ZM10.6707 14.1935L10.7773 14.3627L10.9474 14.2556L10.8394 14.0861L10.6707 14.1935ZM11.7358 15.8884L11.9054 15.7823L11.5593 15.9824L11.7358 15.8884ZM12.0642 16.5051L12.1581 16.6818L12.1626 16.6792L12.0642 16.5051ZM12.0856 16.493L12.1841 16.6674L12.193 16.6618L12.0856 16.493ZM7.98977 17.8809L7.82011 17.9868L8.16636 17.787L7.98977 17.8809ZM7.66233 17.2651L7.56841 17.0885L7.56392 17.091L7.66233 17.2651ZM7.64093 17.2772L7.54251 17.1031L7.53918 17.105L7.64093 17.2772ZM7.62046 17.2893L7.51869 17.1171L7.51457 17.1196L7.62046 17.2893ZM5.09395 15.3051L5.19318 15.4788L5.37099 15.3772L5.26521 15.2018L5.09395 15.3051ZM3.88279 15.9972L3.70684 16.0923L3.80421 16.2725L3.98202 16.1709L3.88279 15.9972ZM6.5814 18.4419H6.3814H6.5814ZM6.5814 20.3023H6.3814H6.5814ZM11.8065 12.9507L11.6378 12.8433L11.6377 12.8435L11.8065 12.9507ZM11.4326 13.5395L11.2637 13.4323L11.1566 13.601L11.3252 13.7083L11.4326 13.5395ZM12.6093 14.2884L12.5019 14.4571L12.6705 14.5644L12.7779 14.3959L12.6093 14.2884ZM12.9842 13.7005L13.1528 13.808L13.1529 13.8078L12.9842 13.7005ZM16.24 8.58419L16.0713 8.47678L16.0713 8.47681L16.24 8.58419ZM15.0623 7.83442L14.8936 7.72701L14.8936 7.72704L15.0623 7.83442ZM4.72093 4.02326H4.52093H4.72093ZM5.4186 4.72093V4.92093V4.72093ZM6.11628 4.02326H6.31628H6.11628ZM9.13953 4.72093V4.52093V4.72093ZM16.5814 6.11628V6.31628V6.11628ZM16.5814 4.72093V4.52093V4.72093ZM1.93023 8.2093H1.73023H1.93023ZM7.97674 15.186V15.386H8.17674V15.186H7.97674ZM7.97674 14.7209H7.77674H7.97674ZM1 14.7209H0.8H1ZM9.97209 12.987L10.1492 12.8941L10.0564 12.717L9.87924 12.8098L9.97209 12.987ZM6.95535 14.5684L6.86249 14.3912L6.68537 14.4841L6.7782 14.6612L6.95535 14.5684ZM11.4084 15.2735L11.5849 15.1795L11.491 15.0031L11.3145 15.0969L11.4084 15.2735ZM8.31721 18.4967L8.14062 18.5906L8.2345 18.7672L8.41108 18.6733L8.31721 18.4967ZM5.99535 16.8791L6.16898 16.7798L6.16897 16.7798L5.99535 16.8791ZM5.09488 15.3042L5.26851 15.2049L5.16926 15.0313L4.99566 15.1305L5.09488 15.3042ZM3.88372 15.9963L3.78449 15.8226L3.61084 15.9219L3.71007 16.0955L3.88372 15.9963ZM4.78419 17.5721L4.61054 17.6713L4.61056 17.6714L4.78419 17.5721ZM10.6716 14.1926L10.5029 14.3L10.6104 14.4688L10.7792 14.3612L10.6716 14.1926ZM11.5814 14.4065L11.4099 14.5095L11.5128 14.6808L11.6842 14.578L11.5814 14.4065ZM12.7777 13.6893L12.8805 13.8608L13.0521 13.758L12.9492 13.5864L12.7777 13.6893ZM9.92186 13.0149L9.81452 12.8461L9.6457 12.9535L9.75315 13.1223L9.92186 13.0149ZM8.36093 18.4716L8.46694 18.6412L8.63668 18.5351L8.53043 18.3655L8.36093 18.4716ZM11.5805 14.4084L11.4774 14.237L11.3065 14.3398L11.4088 14.511L11.5805 14.4084ZM11.3665 15.2967L11.2604 15.1272L11.091 15.2333L11.1969 15.4027L11.3665 15.2967ZM12.7758 13.6893L12.9473 13.5864L12.8443 13.4147L12.6727 13.5179L12.7758 13.6893ZM7.27907 14.986H6.5814V15.386H7.27907V14.986ZM6.3814 15.1861C6.38147 15.3406 6.42138 15.4923 6.49726 15.6268L6.84563 15.4303C6.80356 15.3557 6.78144 15.2716 6.7814 15.1859L6.3814 15.1861ZM6.49726 15.6268C6.57313 15.7613 6.68242 15.8739 6.81455 15.9538L7.02154 15.6116C6.94828 15.5673 6.8877 15.5048 6.84563 15.4303L6.49726 15.6268ZM6.81455 15.9538C6.94668 16.0337 7.09718 16.0782 7.25152 16.0829L7.2638 15.6831C7.17823 15.6805 7.09479 15.6559 7.02154 15.6116L6.81455 15.9538ZM7.25152 16.0829C7.40586 16.0877 7.55881 16.0525 7.69559 15.9809L7.50999 15.6266C7.43416 15.6663 7.34936 15.6858 7.2638 15.6831L7.25152 16.0829ZM7.77994 15.7109L7.45622 15.0932L7.10192 15.2789L7.42564 15.8966L7.77994 15.7109ZM0.8 20.3023C0.8 20.5404 0.894576 20.7687 1.06292 20.9371L1.34577 20.6542C1.25243 20.5609 1.2 20.4343 1.2 20.3023H0.8ZM1.06292 20.9371C1.23127 21.1054 1.4596 21.2 1.69767 21.2V20.8C1.56568 20.8 1.4391 20.7476 1.34577 20.6542L1.06292 20.9371ZM1.69767 21.2C1.93575 21.2 2.16408 21.1054 2.33243 20.9371L2.04958 20.6542C1.95625 20.7476 1.82967 20.8 1.69767 20.8V21.2ZM2.33243 20.9371C2.50077 20.7687 2.59535 20.5404 2.59535 20.3023H2.19535C2.19535 20.4343 2.14292 20.5609 2.04958 20.6542L2.33243 20.9371ZM10.1187 13.6975L10.4424 14.3152L10.7967 14.1295L10.473 13.5118L10.1187 13.6975ZM10.709 14.4012L10.735 14.3882L10.5561 14.0304L10.5301 14.0434L10.709 14.4012ZM10.7521 14.3785L10.7773 14.3627L10.5641 14.0242L10.539 14.0401L10.7521 14.3785ZM10.8394 14.0861L10.4645 13.4972L10.1271 13.7121L10.502 14.3009L10.8394 14.0861ZM11.5593 15.9824L11.8876 16.5991L12.2407 16.4111L11.9124 15.7944L11.5593 15.9824ZM12.1626 16.6792L12.184 16.6671L11.9872 16.3189L11.9658 16.331L12.1626 16.6792ZM12.193 16.6618L12.2134 16.6487L11.9987 16.3113L11.9782 16.3243L12.193 16.6618ZM12.2756 16.3739L11.9054 15.7823L11.5663 15.9945L11.9365 16.5861L12.2756 16.3739ZM8.16636 17.787L7.83891 17.1712L7.48574 17.359L7.81318 17.9748L8.16636 17.787ZM7.56392 17.091L7.54253 17.1031L7.73933 17.4513L7.76073 17.4392L7.56392 17.091ZM7.53918 17.105L7.51872 17.1171L7.72221 17.4615L7.74268 17.4494L7.53918 17.105ZM7.45081 17.3952L7.82011 17.9868L8.15943 17.775L7.79012 17.1834L7.45081 17.3952ZM5.26521 15.2018C5.14413 15.0011 4.94935 14.8557 4.72249 14.7967L4.62182 15.1838C4.74759 15.2166 4.85558 15.2972 4.9227 15.4084L5.26521 15.2018ZM4.72249 14.7967C4.49564 14.7377 4.25471 14.7698 4.05119 14.8861L4.24965 15.2334C4.36248 15.1689 4.49605 15.1511 4.62182 15.1838L4.72249 14.7967ZM4.05119 14.8861C3.84768 15.0024 3.69772 15.1937 3.63338 15.4191L4.01801 15.5289C4.05368 15.4039 4.13682 15.2979 4.24965 15.2334L4.05119 14.8861ZM3.63338 15.4191C3.56903 15.6445 3.5954 15.8861 3.70684 16.0923L4.05874 15.9021C3.99695 15.7878 3.98233 15.6538 4.01801 15.5289L3.63338 15.4191ZM3.98202 16.1709L5.19318 15.4788L4.99473 15.1315L3.78356 15.8236L3.98202 16.1709ZM8.17674 18.4419C8.17674 18.2038 8.08217 17.9755 7.91382 17.8071L7.63098 18.09C7.72431 18.1833 7.77674 18.3099 7.77674 18.4419H8.17674ZM7.91382 17.8071C7.74547 17.6388 7.51715 17.5442 7.27907 17.5442V17.9442C7.41106 17.9442 7.53765 17.9966 7.63098 18.09L7.91382 17.8071ZM7.27907 17.5442C7.04099 17.5442 6.81266 17.6388 6.64432 17.8071L6.92716 18.09C7.02049 17.9966 7.14708 17.9442 7.27907 17.9442V17.5442ZM6.64432 17.8071C6.47597 17.9755 6.3814 18.2038 6.3814 18.4419H6.7814C6.7814 18.3099 6.83383 18.1833 6.92716 18.09L6.64432 17.8071ZM6.3814 20.3023C6.3814 20.5404 6.47597 20.7687 6.64432 20.9371L6.92716 20.6542C6.83383 20.5609 6.7814 20.4343 6.7814 20.3023H6.3814ZM6.64432 20.9371C6.81266 21.1054 7.04099 21.2 7.27907 21.2V20.8C7.14708 20.8 7.02049 20.7476 6.92716 20.6542L6.64432 20.9371ZM7.27907 21.2C7.51715 21.2 7.74547 21.1054 7.91382 20.9371L7.63098 20.6542C7.53765 20.7476 7.41106 20.8 7.27907 20.8V21.2ZM7.91382 20.9371C8.08217 20.7687 8.17674 20.5404 8.17674 20.3023H7.77674C7.77674 20.4343 7.72431 20.5609 7.63098 20.6542L7.91382 20.9371ZM11.6377 12.8435L11.2637 13.4323L11.6014 13.6468L11.9753 13.0579L11.6377 12.8435ZM11.3252 13.7083L12.5019 14.4571L12.7167 14.1196L11.5399 13.3708L11.3252 13.7083ZM12.7779 14.3959L13.1528 13.808L12.8156 13.5929L12.4407 14.1808L12.7779 14.3959ZM16.4087 8.6916C16.472 8.59211 16.5152 8.48113 16.5356 8.36498L16.1417 8.29564C16.1303 8.36005 16.1064 8.4216 16.0713 8.47678L16.4087 8.6916ZM16.5356 8.36498C16.5561 8.24884 16.5534 8.1298 16.5279 8.01467L16.1374 8.10136C16.1515 8.16521 16.153 8.23123 16.1417 8.29564L16.5356 8.36498ZM16.5279 8.01467C16.5023 7.89954 16.4543 7.79057 16.3866 7.69399L16.0591 7.92351C16.0966 7.97708 16.1232 8.03751 16.1374 8.10136L16.5279 8.01467ZM16.3866 7.69399C16.319 7.5974 16.2329 7.51509 16.1335 7.45175L15.9186 7.78918C15.9738 7.8243 16.0215 7.86995 16.0591 7.92351L16.3866 7.69399ZM16.1335 7.45175C16.034 7.38842 15.923 7.3453 15.8068 7.32485L15.7375 7.7188C15.8019 7.73014 15.8635 7.75405 15.9186 7.78918L16.1335 7.45175ZM15.8068 7.32485C15.6907 7.30441 15.5717 7.30704 15.4565 7.3326L15.5432 7.72309C15.6071 7.70892 15.6731 7.70746 15.7375 7.7188L15.8068 7.32485ZM15.4565 7.3326C15.3414 7.35816 15.2324 7.40615 15.1358 7.47382L15.3654 7.80141C15.4189 7.76388 15.4794 7.73727 15.5432 7.72309L15.4565 7.3326ZM15.1358 7.47382C15.0393 7.54149 14.957 7.62753 14.8936 7.72701L15.231 7.94183C15.2662 7.88666 15.3118 7.83894 15.3654 7.80141L15.1358 7.47382ZM4.52093 4.02326C4.52093 4.26133 4.61551 4.48966 4.78385 4.65801L5.0667 4.37516C4.97336 4.28183 4.92093 4.15525 4.92093 4.02326H4.52093ZM4.78385 4.65801C4.9522 4.82635 5.18053 4.92093 5.4186 4.92093V4.52093C5.28661 4.52093 5.16003 4.4685 5.0667 4.37516L4.78385 4.65801ZM5.4186 4.92093C5.65668 4.92093 5.88501 4.82635 6.05336 4.65801L5.77051 4.37516C5.67718 4.4685 5.5506 4.52093 5.4186 4.52093V4.92093ZM6.05336 4.65801C6.2217 4.48966 6.31628 4.26133 6.31628 4.02326H5.91628C5.91628 4.15525 5.86385 4.28183 5.77051 4.37516L6.05336 4.65801ZM17.5116 10.1023C17.2736 10.1023 17.0452 10.1969 16.8769 10.3652L17.1597 10.6481C17.2531 10.5548 17.3796 10.5023 17.5116 10.5023V10.1023ZM16.8769 10.3652C16.7085 10.5336 16.614 10.7619 16.614 11H17.014C17.014 10.868 17.0664 10.7414 17.1597 10.6481L16.8769 10.3652ZM16.614 11C16.614 11.2381 16.7085 11.4664 16.8769 11.6348L17.1597 11.3519C17.0664 11.2586 17.014 11.132 17.014 11H16.614ZM16.8769 11.6348C17.0452 11.8031 17.2736 11.8977 17.5116 11.8977V11.4977C17.3796 11.4977 17.2531 11.4452 17.1597 11.3519L16.8769 11.6348ZM9.13953 4.52093C8.90146 4.52093 8.67313 4.61551 8.50478 4.78385L8.78763 5.0667C8.88096 4.97336 9.00754 4.92093 9.13953 4.92093V4.52093ZM8.50478 4.78385C8.33644 4.9522 8.24186 5.18053 8.24186 5.4186H8.64186C8.64186 5.28661 8.69429 5.16003 8.78763 5.0667L8.50478 4.78385ZM8.24186 5.4186C8.24186 5.65668 8.33644 5.88501 8.50478 6.05336L8.78763 5.77051C8.69429 5.67718 8.64186 5.5506 8.64186 5.4186H8.24186ZM8.50478 6.05336C8.67313 6.2217 8.90146 6.31628 9.13953 6.31628V5.91628C9.00754 5.91628 8.88096 5.86385 8.78763 5.77051L8.50478 6.05336ZM16.5814 6.31628C16.8195 6.31628 17.0478 6.2217 17.2161 6.05336L16.9333 5.77051C16.84 5.86385 16.7134 5.91628 16.5814 5.91628V6.31628ZM17.2161 6.05336C17.3845 5.88501 17.4791 5.65668 17.4791 5.4186H17.0791C17.0791 5.5506 17.0266 5.67718 16.9333 5.77051L17.2161 6.05336ZM17.4791 5.4186C17.4791 5.18053 17.3845 4.9522 17.2161 4.78385L16.9333 5.0667C17.0266 5.16003 17.0791 5.28661 17.0791 5.4186H17.4791ZM17.2161 4.78385C17.0478 4.61551 16.8195 4.52093 16.5814 4.52093V4.92093C16.7134 4.92093 16.84 4.97336 16.9333 5.0667L17.2161 4.78385ZM9.13953 7.31163C8.90146 7.31163 8.67313 7.4062 8.50478 7.57455L8.78763 7.85739C8.88096 7.76406 9.00754 7.71163 9.13953 7.71163V7.31163ZM8.50478 7.57455C8.33644 7.7429 8.24186 7.97122 8.24186 8.2093H8.64186C8.64186 8.07731 8.69429 7.95073 8.78763 7.85739L8.50478 7.57455ZM8.24186 8.2093C8.24186 8.44738 8.33644 8.67571 8.50478 8.84405L8.78763 8.56121C8.69429 8.46788 8.64186 8.34129 8.64186 8.2093H8.24186ZM8.50478 8.84405C8.67313 9.0124 8.90146 9.10698 9.13953 9.10698V8.70698C9.00754 8.70698 8.88096 8.65454 8.78763 8.56121L8.50478 8.84405ZM12.8605 9.10698C13.0985 9.10698 13.3269 9.0124 13.4952 8.84405L13.2124 8.56121C13.119 8.65454 12.9925 8.70698 12.8605 8.70698V9.10698ZM13.4952 8.84405C13.6636 8.67571 13.7581 8.44738 13.7581 8.2093H13.3581C13.3581 8.34129 13.3057 8.46788 13.2124 8.56121L13.4952 8.84405ZM13.7581 8.2093C13.7581 7.97122 13.6636 7.7429 13.4952 7.57455L13.2124 7.85739C13.3057 7.95073 13.3581 8.07731 13.3581 8.2093H13.7581ZM13.4952 7.57455C13.3269 7.4062 13.0985 7.31163 12.8605 7.31163V7.71163C12.9925 7.71163 13.119 7.76406 13.2124 7.85739L13.4952 7.57455ZM5.45116 8.2093C5.45116 8.74071 5.01978 9.17209 4.48837 9.17209V9.57209C5.24069 9.57209 5.85116 8.96162 5.85116 8.2093H5.45116ZM4.48837 10.9674C5.21988 10.9674 5.92142 10.6769 6.43867 10.1596L6.15583 9.87676C5.71359 10.319 5.11379 10.5674 4.48837 10.5674V10.9674ZM6.43867 10.1596C6.95592 9.64235 7.24651 8.94081 7.24651 8.2093H6.84651C6.84651 8.83472 6.59807 9.43452 6.15583 9.87676L6.43867 10.1596ZM4.48837 9.17209C3.95697 9.17209 3.52558 8.74071 3.52558 8.2093H3.12558C3.12558 8.96162 3.73605 9.57209 4.48837 9.57209V9.17209ZM1.73023 8.2093C1.73023 8.94081 2.02082 9.64235 2.53807 10.1596L2.82092 9.87676C2.37868 9.43452 2.13023 8.83472 2.13023 8.2093H1.73023ZM2.53807 10.1596C3.05532 10.6769 3.75687 10.9674 4.48837 10.9674V10.5674C3.86295 10.5674 3.26315 10.319 2.82092 9.87676L2.53807 10.1596ZM3.52558 8.2093C3.52558 7.6779 3.95697 7.24651 4.48837 7.24651V6.84651C3.73605 6.84651 3.12558 7.45698 3.12558 8.2093H3.52558ZM4.48837 5.45116C3.75687 5.45116 3.05532 5.74175 2.53807 6.259L2.82092 6.54185C3.26315 6.09961 3.86295 5.85116 4.48837 5.85116V5.45116ZM2.53807 6.259C2.02082 6.77625 1.73023 7.4778 1.73023 8.2093H2.13023C2.13023 7.58389 2.37868 6.98408 2.82092 6.54185L2.53807 6.259ZM4.48837 7.24651C5.01978 7.24651 5.45116 7.6779 5.45116 8.2093H5.85116C5.85116 7.45698 5.24069 6.84651 4.48837 6.84651V7.24651ZM7.24651 8.2093C7.24651 7.4778 6.95592 6.77625 6.43867 6.259L6.15583 6.54185C6.59807 6.98408 6.84651 7.58389 6.84651 8.2093H7.24651ZM6.43867 6.259C5.92142 5.74175 5.21988 5.45116 4.48837 5.45116V5.85116C5.11379 5.85116 5.71359 6.09961 6.15583 6.54185L6.43867 6.259ZM8.17674 15.186V14.7209H7.77674V15.186H8.17674ZM6.3814 14.7209V15.186H6.7814V14.7209H6.3814ZM6.5814 15.386H7.97674V14.986H6.5814V15.386ZM0.8 14.7209V20.3023H1.2V14.7209H0.8ZM2.59535 20.3023V14.7209H2.19535V20.3023H2.59535ZM7.69565 15.9809L10.7124 14.3995L10.5267 14.0452L7.50993 15.6266L7.69565 15.9809ZM10.7967 14.1295L10.1492 12.8941L9.79495 13.0798L10.4424 14.3152L10.7967 14.1295ZM9.87924 12.8098L6.86249 14.3912L7.04821 14.7455L10.0649 13.1641L9.87924 12.8098ZM6.7782 14.6612L7.42564 15.8966L7.77994 15.7109L7.13249 14.4755L6.7782 14.6612ZM11.3145 15.0969L7.56844 17.0885L7.75621 17.4417L11.5023 15.4501L11.3145 15.0969ZM7.48574 17.359L8.14062 18.5906L8.4938 18.4028L7.83891 17.1712L7.48574 17.359ZM8.41108 18.6733L12.1581 16.6817L11.9703 16.3285L8.22334 18.3201L8.41108 18.6733ZM12.2407 16.4111L11.5849 15.1795L11.2318 15.3675L11.8877 16.5991L12.2407 16.4111ZM6.16897 16.7798L5.26851 15.2049L4.92126 15.4035L5.82173 16.9783L6.16897 16.7798ZM4.99566 15.1305L3.78449 15.8226L3.98295 16.1699L5.19411 15.4778L4.99566 15.1305ZM3.71007 16.0955L4.61054 17.6713L4.95783 17.4729L4.05737 15.8971L3.71007 16.0955ZM10.7792 14.3612C10.8301 14.3287 10.887 14.3067 10.9466 14.2966L10.8795 13.9023C10.7673 13.9213 10.66 13.9627 10.564 14.024L10.7792 14.3612ZM10.9466 14.2966C11.0061 14.2865 11.0671 14.2884 11.1259 14.3022L11.2175 13.9128C11.1066 13.8868 10.9917 13.8832 10.8795 13.9023L10.9466 14.2966ZM11.1259 14.3022C11.1847 14.316 11.2401 14.3415 11.2889 14.3771L11.5247 14.054C11.4327 13.9869 11.3283 13.9389 11.2175 13.9128L11.1259 14.3022ZM11.2889 14.3771C11.3377 14.4127 11.3788 14.4577 11.4099 14.5095L11.7528 14.3035C11.6942 14.2059 11.6167 14.1211 11.5247 14.054L11.2889 14.3771ZM11.6842 14.578L12.8805 13.8608L12.6748 13.5178L11.4786 14.235L11.6842 14.578ZM12.9492 13.5864C12.7947 13.329 12.5903 13.1051 12.3479 12.928L12.1119 13.2509C12.3111 13.3965 12.4792 13.5806 12.6062 13.7922L12.9492 13.5864ZM12.3479 12.928C12.1055 12.7508 11.8302 12.624 11.538 12.5551L11.4461 12.9443C11.6862 13.0011 11.9126 13.1053 12.1119 13.2509L12.3479 12.928ZM11.538 12.5551C11.2458 12.4861 10.9428 12.4763 10.6468 12.5263L10.7134 12.9207C10.9568 12.8796 11.2059 12.8876 11.4461 12.9443L11.538 12.5551ZM10.6468 12.5263C10.3508 12.5763 10.0678 12.685 9.81452 12.8461L10.0292 13.1836C10.2374 13.0512 10.4701 12.9618 10.7134 12.9207L10.6468 12.5263ZM9.75315 13.1223L10.5029 14.3L10.8403 14.0851L10.0906 12.9075L9.75315 13.1223ZM7.51457 17.1196C7.4053 17.1878 7.28279 17.2329 7.15403 17.2531L7.21603 17.6483C7.39645 17.62 7.57014 17.5565 7.72636 17.459L7.51457 17.1196ZM7.15403 17.2531C7.02604 17.2732 6.8953 17.2672 6.76966 17.2356L6.67197 17.6235C6.84981 17.6683 7.03485 17.6767 7.21603 17.6483L7.15403 17.2531ZM6.76966 17.2356C6.64402 17.2039 6.52606 17.1473 6.42284 17.0689L6.18106 17.3876C6.32716 17.4984 6.49413 17.5787 6.67197 17.6235L6.76966 17.2356ZM6.42284 17.0689C6.31963 16.9906 6.23328 16.8923 6.16898 16.7798L5.82172 16.9783C5.91275 17.1375 6.03497 17.2767 6.18106 17.3876L6.42284 17.0689ZM4.61056 17.6714C4.79486 17.9937 5.04235 18.2755 5.3382 18.4999L5.57993 18.1812C5.32699 17.9894 5.11538 17.7484 4.95781 17.4728L4.61056 17.6714ZM5.3382 18.4999C5.63406 18.7243 5.97217 18.8867 6.33228 18.9773L6.42984 18.5893C6.12196 18.5119 5.83288 18.3731 5.57993 18.1812L5.3382 18.4999ZM6.33228 18.9773C6.69239 19.0678 7.06708 19.0847 7.43389 19.027L7.37169 18.6319C7.05808 18.6812 6.73773 18.6668 6.42984 18.5893L6.33228 18.9773ZM7.43389 19.027C7.8007 18.9693 8.15207 18.838 8.46694 18.6412L8.25492 18.302C7.98571 18.4703 7.6853 18.5825 7.37169 18.6319L7.43389 19.027ZM8.53043 18.3655L7.78997 17.1831L7.45096 17.3955L8.19143 18.5778L8.53043 18.3655ZM2.59535 14.7209C2.59535 14.2189 2.79479 13.7374 3.1498 13.3824L2.86696 13.0995C2.43693 13.5295 2.19535 14.1128 2.19535 14.7209H2.59535ZM3.1498 13.3824C3.50481 13.0274 3.98631 12.8279 4.48837 12.8279V12.4279C3.88022 12.4279 3.29699 12.6695 2.86696 13.0995L3.1498 13.3824ZM4.48837 11.0326C3.51015 11.0326 2.572 11.4212 1.8803 12.1129L2.16314 12.3957C2.77983 11.779 3.61624 11.4326 4.48837 11.4326V11.0326ZM1.8803 12.1129C1.1886 12.8046 0.8 13.7427 0.8 14.7209H1.2C1.2 13.8488 1.54645 13.0124 2.16314 12.3957L1.8803 12.1129ZM11.4088 14.511C11.4696 14.6127 11.4881 14.7342 11.4603 14.8494L11.8492 14.943C11.9014 14.7261 11.8666 14.4973 11.7522 14.3058L11.4088 14.511ZM11.4603 14.8494C11.4326 14.9646 11.3608 15.0643 11.2604 15.1272L11.4727 15.4662C11.6618 15.3478 11.7969 15.16 11.8492 14.943L11.4603 14.8494ZM11.1969 15.4027L11.9364 16.586L12.2756 16.374L11.5361 15.1907L11.1969 15.4027ZM12.2121 16.6495C12.7115 16.3371 13.0684 15.8411 13.2058 15.2682L12.8169 15.1749C12.7039 15.6458 12.4105 16.0536 12 16.3105L12.2121 16.6495ZM13.2058 15.2682C13.3433 14.6954 13.2505 14.0915 12.9473 13.5864L12.6043 13.7922C12.8536 14.2075 12.9299 14.704 12.8169 15.1749L13.2058 15.2682ZM12.6727 13.5179L11.4774 14.237L11.6836 14.5798L12.8789 13.8607L12.6727 13.5179ZM8.17674 14.7209C8.17674 14.2366 8.08134 13.7569 7.89598 13.3095L7.52643 13.4625C7.69169 13.8615 7.77674 14.2891 7.77674 14.7209H8.17674ZM7.89598 13.3095C7.71063 12.862 7.43894 12.4554 7.09645 12.1129L6.8136 12.3957C7.11896 12.7011 7.36118 13.0636 7.52643 13.4625L7.89598 13.3095ZM7.09645 12.1129C6.75395 11.7704 6.34734 11.4987 5.89985 11.3133L5.74678 11.6829C6.14574 11.8481 6.50825 12.0903 6.8136 12.3957L7.09645 12.1129ZM5.89985 11.3133C5.45236 11.128 4.97274 11.0326 4.48837 11.0326V11.4326C4.92021 11.4326 5.34781 11.5176 5.74678 11.6829L5.89985 11.3133ZM4.48837 12.8279C4.99043 12.8279 5.47193 13.0274 5.82694 13.3824L6.10978 13.0995C5.67976 12.6695 5.09652 12.4279 4.48837 12.4279V12.8279ZM5.82694 13.3824C6.18195 13.7374 6.3814 14.2189 6.3814 14.7209H6.7814C6.7814 14.1128 6.53981 13.5295 6.10978 13.0995L5.82694 13.3824ZM6.3814 18.4419V20.3023H6.7814V18.4419H6.3814ZM8.17674 20.3023V18.4419H7.77674V20.3023H8.17674ZM13.1529 13.8078L16.4087 8.69156L16.0713 8.47681L12.8155 13.5931L13.1529 13.8078ZM14.8936 7.72704L11.6378 12.8433L11.9752 13.0581L15.2311 7.94179L14.8936 7.72704ZM6.31628 4.02326V3.55814H5.91628V4.02326H6.31628ZM4.52093 3.55814V4.02326H4.92093V3.55814H4.52093ZM7.27907 2.59535H18.4419V2.19535H7.27907V2.59535ZM18.4419 0.8H7.27907V1.2H18.4419V0.8ZM19.4047 3.55814V9.13953H19.8047V3.55814H19.4047ZM21.2 9.13953V3.55814H20.8V9.13953H21.2ZM18.4419 10.1023H17.5116V10.5023H18.4419V10.1023ZM17.5116 11.8977H18.4419V11.4977H17.5116V11.8977ZM19.4047 9.13953C19.4047 9.67094 18.9733 10.1023 18.4419 10.1023V10.5023C19.1942 10.5023 19.8047 9.89185 19.8047 9.13953H19.4047ZM18.4419 11.8977C19.1734 11.8977 19.8749 11.6071 20.3922 11.0898L20.1093 10.807C19.6671 11.2492 19.0673 11.4977 18.4419 11.4977V11.8977ZM20.3922 11.0898C20.9094 10.5726 21.2 9.87104 21.2 9.13953H20.8C20.8 9.76495 20.5516 10.3648 20.1093 10.807L20.3922 11.0898ZM18.4419 2.59535C18.9733 2.59535 19.4047 3.02674 19.4047 3.55814H19.8047C19.8047 2.80582 19.1942 2.19535 18.4419 2.19535V2.59535ZM21.2 3.55814C21.2 2.82664 20.9094 2.12509 20.3922 1.60784L20.1093 1.89068C20.5516 2.33292 20.8 2.93272 20.8 3.55814H21.2ZM20.3922 1.60784C19.8749 1.09059 19.1734 0.8 18.4419 0.8V1.2C19.0673 1.2 19.6671 1.44845 20.1093 1.89068L20.3922 1.60784ZM6.31628 3.55814C6.31628 3.02674 6.74767 2.59535 7.27907 2.59535V2.19535C6.52675 2.19535 5.91628 2.80582 5.91628 3.55814H6.31628ZM7.27907 0.8C6.54757 0.8 5.84602 1.09059 5.32877 1.60784L5.61161 1.89068C6.05385 1.44845 6.65365 1.2 7.27907 1.2V0.8ZM5.32877 1.60784C4.81152 2.12509 4.52093 2.82664 4.52093 3.55814H4.92093C4.92093 2.93272 5.16938 2.33292 5.61161 1.89068L5.32877 1.60784ZM9.13953 6.31628H16.5814V5.91628H9.13953V6.31628ZM16.5814 4.52093H9.13953V4.92093H16.5814V4.52093ZM9.13953 9.10698H12.8605V8.70698H9.13953V9.10698ZM12.8605 7.31163H9.13953V7.71163H12.8605V7.31163Z" fill="#20304F" mask="url(#path-1-outside-1_19607_18137)"/>
</svg>
