<svg width="21" height="20" viewBox="0 0 21 20" fill="none" xmlns="http://www.w3.org/2000/svg">
<path d="M15.2383 7.78595H10.3513C9.96961 7.78595 9.65312 7.46966 9.65312 7.08826C9.65312 6.70686 9.96961 6.39058 10.3513 6.39058H15.2383C15.4234 6.39058 15.601 6.46408 15.7319 6.59493C15.8628 6.72577 15.9364 6.90323 15.9364 7.08826C15.9364 7.2733 15.8628 7.45076 15.7319 7.5816C15.601 7.71244 15.4234 7.78595 15.2383 7.78595ZM5.46427 8.49294C5.28741 8.49294 5.11054 8.42782 4.97092 8.28828L4.27277 7.5906C4.00283 7.32082 4.00283 6.87431 4.27277 6.60454C4.54272 6.33476 4.98953 6.33476 5.25948 6.60454L5.46427 6.80919L7.06534 5.20916C7.33529 4.93939 7.7821 4.93939 8.05205 5.20916C8.322 5.47894 8.322 5.92545 8.05205 6.19523L5.95762 8.28828C5.82682 8.41916 5.64936 8.49277 5.46427 8.49294ZM15.2383 14.2977H10.3513C9.96961 14.2977 9.65312 13.9814 9.65312 13.6C9.65312 13.2186 9.96961 12.9023 10.3513 12.9023H15.2383C15.4234 12.9023 15.601 12.9758 15.7319 13.1067C15.8628 13.2375 15.9364 13.415 15.9364 13.6C15.9364 13.785 15.8628 13.9625 15.7319 14.0933C15.601 14.2242 15.4234 14.2977 15.2383 14.2977ZM5.46427 15.0047C5.28741 15.0047 5.11054 14.9395 4.97092 14.8L4.27277 14.1023C4.00283 13.8326 4.00283 13.386 4.27277 13.1163C4.54272 12.8465 4.98953 12.8465 5.25948 13.1163L5.46427 13.3209L7.06534 11.7209C7.33529 11.4511 7.7821 11.4511 8.05205 11.7209C8.322 11.9907 8.322 12.4372 8.05205 12.707L5.95762 14.8C5.82682 14.9309 5.64936 15.0045 5.46427 15.0047Z" fill="white"/>
<path d="M12.7993 20.0003H7.21413C2.15959 20.0003 0 17.8421 0 12.7909V7.20941C0 2.15817 2.15959 0 7.21413 0H12.7993C17.8538 0 20.0134 2.15817 20.0134 7.20941V12.7909C20.0134 17.8421 17.8538 20.0003 12.7993 20.0003ZM7.21413 1.39537C2.92289 1.39537 1.39628 2.92097 1.39628 7.20941V12.7909C1.39628 17.0793 2.92289 18.6049 7.21413 18.6049H12.7993C17.0905 18.6049 18.6171 17.0793 18.6171 12.7909V7.20941C18.6171 2.92097 17.0905 1.39537 12.7993 1.39537H7.21413Z" fill="white"/>
</svg>
