<svg width="21" height="20" viewBox="0 0 21 20" fill="none" xmlns="http://www.w3.org/2000/svg">
<path d="M15.2383 7.78692H10.3513C9.96961 7.78692 9.65312 7.47064 9.65312 7.08924C9.65312 6.70784 9.96961 6.39155 10.3513 6.39155H15.2383C15.4234 6.39155 15.601 6.46506 15.7319 6.5959C15.8628 6.72674 15.9364 6.9042 15.9364 7.08924C15.9364 7.27428 15.8628 7.45174 15.7319 7.58258C15.601 7.71342 15.4234 7.78692 15.2383 7.78692ZM5.46427 8.49391C5.28741 8.49391 5.11054 8.42879 4.97092 8.28926L4.27277 7.59157C4.00283 7.3218 4.00283 6.87528 4.27277 6.60551C4.54272 6.33574 4.98953 6.33574 5.25948 6.60551L5.46427 6.81017L7.06534 5.21014C7.33529 4.94037 7.7821 4.94037 8.05205 5.21014C8.322 5.47991 8.322 5.92643 8.05205 6.1962L5.95762 8.28926C5.82682 8.42014 5.64936 8.49375 5.46427 8.49391ZM15.2383 14.2987H10.3513C9.96961 14.2987 9.65312 13.9824 9.65312 13.601C9.65312 13.2196 9.96961 12.9033 10.3513 12.9033H15.2383C15.4234 12.9033 15.601 12.9768 15.7319 13.1076C15.8628 13.2385 15.9364 13.4159 15.9364 13.601C15.9364 13.786 15.8628 13.9635 15.7319 14.0943C15.601 14.2251 15.4234 14.2987 15.2383 14.2987ZM5.46427 15.0056C5.28741 15.0056 5.11054 14.9405 4.97092 14.801L4.27277 14.1033C4.00283 13.8335 4.00283 13.387 4.27277 13.1172C4.54272 12.8475 4.98953 12.8475 5.25948 13.1172L5.46427 13.3219L7.06534 11.7219C7.33529 11.4521 7.7821 11.4521 8.05205 11.7219C8.322 11.9916 8.322 12.4382 8.05205 12.7079L5.95762 14.801C5.82682 14.9319 5.64936 15.0055 5.46427 15.0056Z" fill="#20304F"/>
<path d="M12.7993 20.0003H7.21413C2.15958 20.0003 0 17.8421 0 12.7909V7.20941C0 2.15817 2.15958 0 7.21413 0H12.7993C17.8538 0 20.0134 2.15817 20.0134 7.20941V12.7909C20.0134 17.8421 17.8538 20.0003 12.7993 20.0003ZM7.21413 1.39537C2.92289 1.39537 1.39628 2.92097 1.39628 7.20941V12.7909C1.39628 17.0793 2.92289 18.6049 7.21413 18.6049H12.7993C17.0905 18.6049 18.6171 17.0793 18.6171 12.7909V7.20941C18.6171 2.92097 17.0905 1.39537 12.7993 1.39537H7.21413Z" fill="#20304F"/>
</svg>
