<svg width="15" height="16" viewBox="0 0 15 16" fill="none" xmlns="http://www.w3.org/2000/svg">
<path d="M13.6218 3.98221C13.5076 3.82702 13.3885 3.67568 13.2617 3.52997C11.885 1.93985 9.81322 0.925781 7.50015 0.925781C7.49585 0.925781 7.49246 0.926077 7.48877 0.926077C7.48631 0.926077 7.48446 0.925781 7.482 0.925781C7.47369 0.925781 7.46507 0.92667 7.45615 0.92667C5.16063 0.939405 3.10696 1.95052 1.73826 3.52997C1.6121 3.67598 1.4924 3.82702 1.37824 3.98221C0.511724 5.15947 0 6.59499 0 8.14453C0 9.69378 0.511416 11.1299 1.37824 12.3068C1.4924 12.462 1.6121 12.6134 1.73826 12.7591C3.10665 14.3385 5.16032 15.3497 7.45615 15.3624C7.46507 15.3624 7.47369 15.3633 7.482 15.3633C7.48446 15.3633 7.48631 15.363 7.48846 15.363C7.49215 15.363 7.49554 15.3633 7.49985 15.3633C9.81322 15.3633 11.8847 14.3495 13.2617 12.7594C13.3879 12.6137 13.5076 12.462 13.6218 12.3068C14.4883 11.1296 15 9.69407 15 8.14423C15 6.59529 14.4883 5.15947 13.6218 3.98221ZM5.30771 1.86463C4.61844 2.50464 4.04548 3.44023 3.65069 4.563C3.12173 4.37286 2.6457 4.14392 2.23521 3.88507C3.03988 2.96518 4.0981 2.25675 5.30771 1.86463ZM1.87396 4.33791C2.34045 4.63763 2.87956 4.89974 3.4756 5.11564C3.21835 6.02013 3.07065 7.02413 3.06511 8.08352H0.616653C0.629885 6.69006 1.09607 5.40055 1.87396 4.33791ZM0.639732 8.67585H3.07711C3.11681 9.56257 3.25682 10.404 3.47498 11.1737C2.87864 11.3896 2.33984 11.6517 1.87396 11.9517C1.18438 11.0096 0.739738 9.88954 0.639732 8.67585ZM2.23706 12.4028C2.64755 12.1445 3.12235 11.9162 3.65007 11.7261C4.04486 12.8491 4.61813 13.7841 5.30771 14.4241C4.0981 14.0323 3.04203 13.3224 2.23706 12.4028ZM7.19244 14.7496C5.9296 14.5832 4.83968 13.3366 4.2218 11.5413C5.11262 11.2842 6.12099 11.1284 7.19244 11.1032V14.7496ZM7.19244 10.5115C6.06253 10.5376 4.99754 10.7055 4.04917 10.9857C3.85501 10.276 3.73069 9.49742 3.69346 8.67615H7.19244V10.5115ZM7.19244 8.08352H3.68053C3.68607 7.0887 3.82054 6.14896 4.05194 5.3043C4.99908 5.58358 6.06345 5.75181 7.19213 5.77757L7.19244 8.08352ZM7.19244 5.18583C6.12161 5.16066 5.11354 5.00547 4.22364 4.7484C4.84122 2.95393 5.93021 1.70618 7.19244 1.53944V5.18583ZM14.3827 8.08352H11.8989C11.8933 7.02858 11.7475 6.02872 11.4921 5.12749C12.1014 4.90951 12.6519 4.64326 13.126 4.33821C13.9036 5.40085 14.3695 6.69006 14.3827 8.08352ZM12.7642 3.88566C12.3454 4.14955 11.8586 4.38204 11.317 4.57425C10.9185 3.43608 10.3373 2.48924 9.63721 1.84686C10.8693 2.23513 11.9469 2.95156 12.7642 3.88566ZM7.80786 1.54388C9.05686 1.72958 10.1326 2.97495 10.7437 4.75728C9.86214 5.00873 8.86547 5.16095 7.80786 5.18583V1.54388ZM7.80786 5.77787C8.92332 5.7524 9.97569 5.58773 10.9145 5.31437C11.1447 6.15666 11.2782 7.09285 11.2835 8.08382H7.80786V5.77787ZM7.80786 8.67585H11.2708C11.2336 9.49327 11.1099 10.2683 10.9176 10.9759C9.97754 10.7016 8.92393 10.5373 7.80848 10.5115L7.80786 8.67585ZM7.80786 14.7452V11.1035C8.86608 11.1284 9.86276 11.2806 10.7456 11.5321C10.1335 13.315 9.05656 14.5595 7.80786 14.7452ZM9.63721 14.4425C10.3373 13.8004 10.9197 12.8542 11.3182 11.7157C11.8586 11.9076 12.3448 12.1398 12.7629 12.4031C11.9457 13.3369 10.8693 14.0539 9.63721 14.4425ZM13.126 11.9517C12.6519 11.6467 12.1014 11.3798 11.4918 11.1622C11.7078 10.3957 11.8466 9.55813 11.8857 8.67615H14.36C14.26 9.88954 13.8165 11.0099 13.126 11.9517Z" fill="#313033"/>
</svg>
