<svg width="17" height="17" viewBox="0 0 17 17" fill="none" xmlns="http://www.w3.org/2000/svg">
<path d="M0.95 9.03565V9.03571L0.95 9.57143L0.95 9.57149C0.950867 10.2949 1.23861 10.9884 1.75012 11.4999C2.26163 12.0114 2.95513 12.2991 3.67851 12.3H3.67857H4.75C5.04742 12.3 5.33266 12.1818 5.54297 11.9715C5.75328 11.7612 5.87143 11.476 5.87143 11.1786V7.42857C5.87143 7.13115 5.75328 6.84591 5.54297 6.6356C5.33266 6.42529 5.04742 6.30714 4.75 6.30714H4.26458C4.27761 5.20184 4.72234 4.1446 5.5049 3.36204C6.29925 2.56769 7.37662 2.12143 8.5 2.12143C9.62338 2.12143 10.7008 2.56769 11.4951 3.36204C12.2777 4.1446 12.7224 5.20184 12.7354 6.30714H12.25C11.9526 6.30714 11.6673 6.42529 11.457 6.6356C11.2467 6.84591 11.1286 7.13115 11.1286 7.42857V11.1786C11.1286 11.476 11.2467 11.7612 11.457 11.9715C11.6673 12.1818 11.9526 12.3 12.25 12.3H12.7357V13.3214C12.7357 13.4502 12.6845 13.5738 12.5935 13.6649C12.5024 13.756 12.3788 13.8071 12.25 13.8071H10.5792C10.4629 13.4992 10.2574 13.2327 9.98861 13.0418C9.71017 12.844 9.37744 12.7371 9.03592 12.7357H9.03571H7.96429C7.52478 12.7357 7.10328 12.9103 6.79251 13.2211C6.48173 13.5319 6.30714 13.9534 6.30714 14.3929C6.30714 14.8324 6.48173 15.2539 6.79251 15.5646C7.10328 15.8754 7.52478 16.05 7.96429 16.05H9.03571L9.03592 16.05C9.37744 16.0486 9.71017 15.9417 9.98861 15.7439C10.2574 15.553 10.4629 15.2865 10.5792 14.9786H12.25C12.6895 14.9786 13.111 14.804 13.4218 14.4932C13.7326 14.1824 13.9071 13.7609 13.9071 13.3214V12.25H13.9076L13.9067 12.2432C13.9063 12.2405 13.9059 12.2378 13.9055 12.2351C14.5038 12.1033 15.0409 11.7741 15.4301 11.2998C15.8299 10.8124 16.0489 10.2019 16.05 9.57152V9.57143V9.03571V9.03565C16.0492 8.4069 15.8317 7.79764 15.4341 7.31057C15.0451 6.83405 14.507 6.50298 13.9071 6.37026V6.35714C13.9071 4.92308 13.3375 3.54775 12.3234 2.53372C11.3094 1.51968 9.93406 0.95 8.5 0.95C7.06594 0.95 5.69061 1.51968 4.67657 2.53372C3.66254 3.54775 3.09286 4.92308 3.09286 6.35714V6.37026C2.49302 6.50298 1.95494 6.83405 1.56594 7.31057C1.16833 7.79764 0.950794 8.4069 0.95 9.03565ZM4.7 7.47857V11.1286H3.67857C3.26559 11.1286 2.86953 10.9645 2.57751 10.6725C2.28548 10.3805 2.12143 9.98441 2.12143 9.57143V9.03571C2.12143 8.62273 2.28548 8.22667 2.57751 7.93465C2.86953 7.64263 3.26559 7.47857 3.67857 7.47857H4.7ZM7.96429 14.8786C7.83547 14.8786 7.71192 14.8274 7.62083 14.7363C7.52974 14.6452 7.47857 14.5217 7.47857 14.3929C7.47857 14.264 7.52974 14.1405 7.62083 14.0494C7.71192 13.9583 7.83547 13.9071 7.96429 13.9071H9.03571C9.16453 13.9071 9.28808 13.9583 9.37917 14.0494C9.47026 14.1405 9.52143 14.264 9.52143 14.3929C9.52143 14.5217 9.47026 14.6452 9.37917 14.7363C9.28808 14.8274 9.16453 14.8786 9.03571 14.8786H7.96429ZM14.8786 9.57143C14.8786 9.98441 14.7145 10.3805 14.4225 10.6725C14.1305 10.9645 13.7344 11.1286 13.3214 11.1286H12.3V7.47857H13.3214C13.7344 7.47857 14.1305 7.64263 14.4225 7.93465C14.7145 8.22667 14.8786 8.62273 14.8786 9.03571V9.57143Z" fill="#20304F" stroke="#20304F" stroke-width="0.1"/>
</svg>
