<svg width="20" height="20" viewBox="0 0 20 20" fill="none" xmlns="http://www.w3.org/2000/svg">
<path d="M18.0559 10.0004H16.0559C15.7907 10.0004 15.5364 10.1058 15.3488 10.2933C15.1613 10.4808 15.0559 10.7352 15.0559 11.0004C15.0559 11.2656 15.1613 11.52 15.3488 11.7075C15.5364 11.895 15.7907 12.0004 16.0559 12.0004V14.0004H14.8699C14.9887 13.6802 15.0513 13.3419 15.0549 13.0004C15.0549 12.34 14.837 11.6981 14.435 11.1742C14.0329 10.6503 13.4693 10.2737 12.8314 10.1028C12.1935 9.93177 11.5171 9.97617 10.907 10.2289C10.2968 10.4816 9.7872 10.9285 9.4569 11.5004C9.3902 11.6142 9.3467 11.74 9.3288 11.8707C9.311 12.0013 9.3191 12.1343 9.3528 12.2618C9.3865 12.3893 9.4451 12.5088 9.5252 12.6136C9.6054 12.7183 9.7054 12.8062 9.8196 12.8722C9.9338 12.9381 10.0599 12.9808 10.1907 12.9978C10.3215 13.0148 10.4544 13.0058 10.5816 12.9712C10.7089 12.9367 10.8281 12.8773 10.9323 12.7965C11.0365 12.7157 11.1238 12.6151 11.1889 12.5004C11.2767 12.3484 11.4029 12.2222 11.5549 12.1344C11.707 12.0466 11.8794 12.0004 12.0549 12.0004C12.3202 12.0004 12.5745 12.1058 12.762 12.2933C12.9496 12.4808 13.0549 12.7352 13.0549 13.0004C13.0549 13.2656 12.9496 13.52 12.762 13.7075C12.5745 13.895 12.3202 14.0004 12.0549 14.0004C11.7897 14.0004 11.5354 14.1058 11.3478 14.2933C11.1603 14.4808 11.0549 14.7352 11.0549 15.0004C11.0549 15.2656 11.1603 15.52 11.3478 15.7075C11.5354 15.895 11.7897 16.0004 12.0549 16.0004C12.3202 16.0004 12.5745 16.1058 12.762 16.2933C12.9496 16.4808 13.0549 16.7352 13.0549 17.0004C13.0549 17.2656 12.9496 17.52 12.762 17.7075C12.5745 17.895 12.3202 18.0004 12.0549 18.0004C11.8794 18.0004 11.707 17.9542 11.5549 17.8664C11.4029 17.7787 11.2767 17.6524 11.1889 17.5004C11.1238 17.3858 11.0365 17.2851 10.9323 17.2043C10.8281 17.1235 10.7089 17.0641 10.5816 17.0296C10.4544 16.995 10.3215 16.986 10.1907 17.003C10.0599 17.02 9.9338 17.0627 9.8196 17.1286C9.7054 17.1946 9.6054 17.2825 9.5252 17.3872C9.4451 17.492 9.3865 17.6116 9.3528 17.7391C9.3191 17.8666 9.311 17.9995 9.3288 18.1301C9.3467 18.2608 9.3902 18.3866 9.4569 18.5004C9.7872 19.0723 10.2968 19.5192 10.907 19.7719C11.5171 20.0246 12.1935 20.069 12.8314 19.898C13.4693 19.7271 14.0329 19.3505 14.435 18.8266C14.837 18.3027 15.0549 17.6608 15.0549 17.0004C15.0513 16.6589 14.9887 16.3206 14.8699 16.0004H16.0549V19.0004C16.0549 19.2656 16.1603 19.52 16.3478 19.7075C16.5354 19.895 16.7897 20.0004 17.0549 20.0004C17.3202 20.0004 17.5745 19.895 17.762 19.7075C17.9496 19.52 18.0549 19.2656 18.0549 19.0004V12.0004C18.3202 12.0004 18.5745 11.895 18.762 11.7075C18.9496 11.52 19.0549 11.2656 19.0549 11.0004C19.0549 10.7352 18.9496 10.4808 18.762 10.2933C18.5745 10.1058 18.3202 10.0004 18.0549 10.0004H18.0559ZM6.08594 9.24337C6.11708 9.37157 6.17328 9.49237 6.2513 9.59867C6.32932 9.70507 6.42762 9.79497 6.54053 9.86317C6.65344 9.93147 6.77874 9.97667 6.9092 9.99617C7.0397 10.0158 7.1727 10.0094 7.3007 9.97737C7.4286 9.94527 7.549 9.88817 7.6548 9.80947C7.7606 9.73067 7.8498 9.63167 7.9172 9.51827C7.9847 9.40487 8.029 9.27927 8.0476 9.14867C8.0663 9.01807 8.0589 8.88507 8.0259 8.75737L6.26893 1.72737C6.14603 1.23356 5.86145 0.795047 5.46051 0.481667C5.05957 0.168287 4.56532 -0.00195312 4.05643 -0.00195312C3.54755 -0.00195312 3.0533 0.168287 2.65236 0.481667C2.25142 0.795047 1.96684 1.23356 1.84393 1.72737L0.0859317 8.75737C0.0529617 8.88507 0.0455916 9.01807 0.0642516 9.14867C0.0829016 9.27927 0.127212 9.40487 0.194632 9.51827C0.262042 9.63167 0.351232 9.73067 0.457052 9.80947C0.562862 9.88817 0.683222 9.94527 0.811191 9.97737C0.939161 10.0094 1.07221 10.0158 1.20267 9.99617C1.33313 9.97667 1.45843 9.93147 1.57134 9.86317C1.68425 9.79497 1.78255 9.70507 1.86057 9.59867C1.93859 9.49237 1.99479 9.37157 2.02593 9.24337L2.58493 7.00037H5.52493L6.08594 9.24337ZM3.08593 5.00037L3.78293 2.21337C3.80396 2.15799 3.84133 2.1103 3.89009 2.07665C3.93885 2.04301 3.99669 2.02498 4.05593 2.02498C4.11518 2.02498 4.17302 2.04301 4.22178 2.07665C4.27054 2.1103 4.30791 2.15799 4.32893 2.21337L5.02593 5.00037H3.08593ZM11.0559 5.00037H12.0559C12.3211 5.00064 12.5753 5.10608 12.7627 5.29356C12.9502 5.48104 13.0557 5.73524 13.0559 6.00037V7.00037C13.0559 7.26559 13.1613 7.51995 13.3488 7.70748C13.5364 7.89502 13.7907 8.00037 14.0559 8.00037C14.3212 8.00037 14.5755 7.89502 14.763 7.70748C14.9506 7.51995 15.0559 7.26559 15.0559 7.00037V6.00037C15.0551 5.20497 14.7388 4.44237 14.1764 3.87993C13.6139 3.31749 12.8513 3.00117 12.0559 3.00037H11.0559C10.7907 3.00037 10.5364 3.10573 10.3488 3.29327C10.1613 3.4808 10.0559 3.73516 10.0559 4.00037C10.0559 4.26559 10.1613 4.51995 10.3488 4.70748C10.5364 4.89502 10.7907 5.00037 11.0559 5.00037ZM7.0559 14.0004H6.05593C5.7908 14.0001 5.5366 13.8947 5.34912 13.7072C5.16164 13.5197 5.0562 13.2655 5.05593 13.0004V12.0004C5.05593 11.7352 4.95058 11.4808 4.76304 11.2933C4.57551 11.1058 4.32115 11.0004 4.05593 11.0004C3.79072 11.0004 3.53636 11.1058 3.34883 11.2933C3.16129 11.4808 3.05593 11.7352 3.05593 12.0004V13.0004C3.05673 13.7958 3.37305 14.5584 3.93549 15.1208C4.49793 15.6833 5.26053 15.9996 6.05593 16.0004H7.0559C7.3212 16.0004 7.5755 15.895 7.763 15.7075C7.9506 15.52 8.0559 15.2656 8.0559 15.0004C8.0559 14.7352 7.9506 14.4808 7.763 14.2933C7.5755 14.1058 7.3212 14.0004 7.0559 14.0004Z" fill="#20304F"/>
</svg>


