<svg width="24" height="24" viewBox="0 0 24 24" fill="none" xmlns="http://www.w3.org/2000/svg">
<path d="M21.0559 12.0004H19.0559C18.7907 12.0004 18.5364 12.1058 18.3488 12.2933C18.1613 12.4808 18.0559 12.7352 18.0559 13.0004C18.0559 13.2656 18.1613 13.52 18.3488 13.7075C18.5364 13.895 18.7907 14.0004 19.0559 14.0004V16.0004H17.8699C17.9887 15.6802 18.0513 15.3419 18.0549 15.0004C18.0549 14.34 17.837 13.6981 17.435 13.1742C17.0329 12.6503 16.4693 12.2737 15.8314 12.1028C15.1935 11.9318 14.5171 11.9762 13.907 12.2289C13.2968 12.4816 12.7872 12.9285 12.4569 13.5004C12.3902 13.6142 12.3467 13.74 12.3288 13.8707C12.311 14.0013 12.3191 14.1343 12.3528 14.2618C12.3865 14.3893 12.4451 14.5088 12.5252 14.6136C12.6054 14.7183 12.7054 14.8062 12.8196 14.8722C12.9338 14.9381 13.0599 14.9808 13.1907 14.9978C13.3215 15.0148 13.4544 15.0058 13.5816 14.9712C13.7089 14.9367 13.8281 14.8773 13.9323 14.7965C14.0365 14.7157 14.1238 14.6151 14.1889 14.5004C14.2767 14.3484 14.4029 14.2222 14.5549 14.1344C14.707 14.0466 14.8794 14.0004 15.0549 14.0004C15.3202 14.0004 15.5745 14.1058 15.762 14.2933C15.9496 14.4808 16.0549 14.7352 16.0549 15.0004C16.0549 15.2656 15.9496 15.52 15.762 15.7075C15.5745 15.895 15.3202 16.0004 15.0549 16.0004C14.7897 16.0004 14.5354 16.1058 14.3478 16.2933C14.1603 16.4808 14.0549 16.7352 14.0549 17.0004C14.0549 17.2656 14.1603 17.52 14.3478 17.7075C14.5354 17.895 14.7897 18.0004 15.0549 18.0004C15.3202 18.0004 15.5745 18.1058 15.762 18.2933C15.9496 18.4808 16.0549 18.7352 16.0549 19.0004C16.0549 19.2656 15.9496 19.52 15.762 19.7075C15.5745 19.895 15.3202 20.0004 15.0549 20.0004C14.8794 20.0004 14.707 19.9542 14.5549 19.8664C14.4029 19.7787 14.2767 19.6524 14.1889 19.5004C14.1238 19.3858 14.0365 19.2851 13.9323 19.2043C13.8281 19.1235 13.7089 19.0641 13.5816 19.0296C13.4544 18.995 13.3215 18.986 13.1907 19.003C13.0599 19.02 12.9338 19.0627 12.8196 19.1286C12.7054 19.1946 12.6054 19.2825 12.5252 19.3872C12.4451 19.492 12.3865 19.6116 12.3528 19.7391C12.3191 19.8666 12.311 19.9995 12.3288 20.1301C12.3467 20.2608 12.3902 20.3866 12.4569 20.5004C12.7872 21.0723 13.2968 21.5192 13.907 21.7719C14.5171 22.0246 15.1935 22.069 15.8314 21.898C16.4693 21.7271 17.0329 21.3505 17.435 20.8266C17.837 20.3027 18.0549 19.6608 18.0549 19.0004C18.0513 18.6589 17.9887 18.3206 17.8699 18.0004H19.0549V21.0004C19.0549 21.2656 19.1603 21.52 19.3478 21.7075C19.5354 21.895 19.7897 22.0004 20.0549 22.0004C20.3202 22.0004 20.5745 21.895 20.762 21.7075C20.9496 21.52 21.0549 21.2656 21.0549 21.0004V14.0004C21.3202 14.0004 21.5745 13.895 21.762 13.7075C21.9496 13.52 22.0549 13.2656 22.0549 13.0004C22.0549 12.7352 21.9496 12.4808 21.762 12.2933C21.5745 12.1058 21.3202 12.0004 21.0549 12.0004H21.0559ZM9.08594 11.2434C9.11708 11.3716 9.17328 11.4924 9.2513 11.5987C9.32932 11.7051 9.42762 11.795 9.54053 11.8632C9.65344 11.9315 9.77874 11.9767 9.9092 11.9962C10.0397 12.0158 10.1727 12.0094 10.3007 11.9774C10.4286 11.9453 10.549 11.8882 10.6548 11.8095C10.7606 11.7307 10.8498 11.6317 10.9172 11.5183C10.9847 11.4049 11.029 11.2793 11.0476 11.1487C11.0663 11.0181 11.0589 10.8851 11.0259 10.7574L9.26893 3.72737C9.14603 3.23356 8.86145 2.79505 8.46051 2.48167C8.05957 2.16829 7.56532 1.99805 7.05643 1.99805C6.54755 1.99805 6.0533 2.16829 5.65236 2.48167C5.25142 2.79505 4.96684 3.23356 4.84393 3.72737L3.08593 10.7574C3.05296 10.8851 3.04559 11.0181 3.06425 11.1487C3.0829 11.2793 3.12721 11.4049 3.19463 11.5183C3.26204 11.6317 3.35123 11.7307 3.45705 11.8095C3.56286 11.8882 3.68322 11.9453 3.81119 11.9774C3.93916 12.0094 4.07221 12.0158 4.20267 11.9962C4.33313 11.9767 4.45843 11.9315 4.57134 11.8632C4.68425 11.795 4.78255 11.7051 4.86057 11.5987C4.93859 11.4924 4.99479 11.3716 5.02593 11.2434L5.58493 9.00037H8.52493L9.08594 11.2434ZM6.08593 7.00037L6.78293 4.21337C6.80396 4.15799 6.84133 4.1103 6.89009 4.07665C6.93885 4.04301 6.99669 4.02498 7.05593 4.02498C7.11518 4.02498 7.17302 4.04301 7.22178 4.07665C7.27054 4.1103 7.30791 4.15799 7.32893 4.21337L8.02593 7.00037H6.08593ZM14.0559 7.00037H15.0559C15.3211 7.00064 15.5753 7.10608 15.7627 7.29356C15.9502 7.48104 16.0557 7.73524 16.0559 8.00037V9.00037C16.0559 9.26559 16.1613 9.51995 16.3488 9.70748C16.5364 9.89502 16.7907 10.0004 17.0559 10.0004C17.3212 10.0004 17.5755 9.89502 17.763 9.70748C17.9506 9.51995 18.0559 9.26559 18.0559 9.00037V8.00037C18.0551 7.20497 17.7388 6.44237 17.1764 5.87993C16.6139 5.31749 15.8513 5.00117 15.0559 5.00037H14.0559C13.7907 5.00037 13.5364 5.10573 13.3488 5.29327C13.1613 5.4808 13.0559 5.73516 13.0559 6.00037C13.0559 6.26559 13.1613 6.51995 13.3488 6.70748C13.5364 6.89502 13.7907 7.00037 14.0559 7.00037ZM10.0559 16.0004H9.05593C8.7908 16.0001 8.5366 15.8947 8.34912 15.7072C8.16164 15.5197 8.0562 15.2655 8.05593 15.0004V14.0004C8.05593 13.7352 7.95058 13.4808 7.76304 13.2933C7.57551 13.1058 7.32115 13.0004 7.05593 13.0004C6.79072 13.0004 6.53636 13.1058 6.34883 13.2933C6.16129 13.4808 6.05593 13.7352 6.05593 14.0004V15.0004C6.05673 15.7958 6.37305 16.5584 6.93549 17.1208C7.49793 17.6833 8.26053 17.9996 9.05593 18.0004H10.0559C10.3212 18.0004 10.5755 17.895 10.763 17.7075C10.9506 17.52 11.0559 17.2656 11.0559 17.0004C11.0559 16.7352 10.9506 16.4808 10.763 16.2933C10.5755 16.1058 10.3212 16.0004 10.0559 16.0004Z" fill="white"/>
</svg>
