<svg width="13" height="15" viewBox="0 0 13 15" fill="none" xmlns="http://www.w3.org/2000/svg">
<path d="M9.62976 14.2969C9.62976 14.4834 9.55603 14.6622 9.42479 14.7941C9.29355 14.9259 9.11555 15 8.92995 15H2.3327C1.71424 14.9993 1.12131 14.7521 0.683999 14.3128C0.246684 13.8734 0.000694593 13.2776 0 12.6562V2.34375C0.000694593 1.72236 0.246684 1.12663 0.683999 0.687239C1.12131 0.247852 1.71424 0.000697883 2.3327 0L8.92995 0C9.11555 0 9.29355 0.074079 9.42479 0.205941C9.55603 0.337802 9.62976 0.516645 9.62976 0.703125C9.62976 0.889605 9.55603 1.06845 9.42479 1.20031C9.29355 1.33217 9.11555 1.40625 8.92995 1.40625H2.3327C2.08531 1.40652 1.84814 1.50538 1.67321 1.68114C1.49828 1.85689 1.39989 2.09519 1.39962 2.34375V12.6562C1.39988 12.9048 1.49827 13.1431 1.6732 13.3189C1.84813 13.4946 2.08531 13.5935 2.3327 13.5938H8.92995C9.11555 13.5938 9.29355 13.6678 9.42479 13.7997C9.55603 13.9316 9.62976 14.1104 9.62976 14.2969ZM12.795 7.00283L9.46945 3.66146C9.40473 3.59498 9.32753 3.54205 9.24232 3.50575C9.1571 3.46944 9.06556 3.45048 8.97301 3.44997C8.88045 3.44945 8.78871 3.46739 8.7031 3.50275C8.61749 3.5381 8.53971 3.59017 8.47426 3.65593C8.40881 3.72169 8.357 3.79985 8.32183 3.88587C8.28665 3.97189 8.26881 4.06406 8.26933 4.15706C8.26985 4.25006 8.28873 4.34202 8.32488 4.42764C8.36102 4.51325 8.41371 4.59081 8.47989 4.65583L10.6107 6.79688H5.10158C4.91598 6.79688 4.73798 6.87095 4.60674 7.00282C4.4755 7.13468 4.40177 7.31352 4.40177 7.5C4.40177 7.68648 4.4755 7.86532 4.60674 7.99718C4.73798 8.12905 4.91598 8.20312 5.10158 8.20312H10.6107L8.47977 10.3441C8.4145 10.4094 8.36267 10.4869 8.32727 10.5723C8.29187 10.6577 8.27358 10.7492 8.27345 10.8417C8.27333 10.9342 8.29137 11.0258 8.32654 11.1113C8.36171 11.1968 8.41333 11.2745 8.47842 11.3399C8.54352 11.4053 8.62082 11.4571 8.7059 11.4925C8.79097 11.5278 8.88216 11.5459 8.97422 11.5458C9.06628 11.5457 9.15741 11.5273 9.24239 11.4917C9.32737 11.4562 9.40453 11.4041 9.46945 11.3385L12.795 7.9972C12.9263 7.86534 13 7.68649 13 7.50001C13 7.31353 12.9263 7.13469 12.795 7.00283Z" fill="#20304F"/>
</svg>
