<svg width="102" height="25" viewBox="0 0 102 25" fill="none" xmlns="http://www.w3.org/2000/svg">
<path d="M0 24.5739V0.33144H5.84054V19.8153H15.8933V24.5739H0Z" fill="#20304F"/>
<path d="M27.3768 24.9171C25.4732 24.9171 23.8371 24.5265 22.4684 23.7453C21.1076 22.9561 20.0574 21.8592 19.318 20.4545C18.5865 19.042 18.2207 17.4045 18.2207 15.5421C18.2207 13.6719 18.5865 12.0344 19.318 10.6297C20.0574 9.21717 21.1076 8.12027 22.4684 7.33902C23.8371 6.54987 25.4732 6.1553 27.3768 6.1553C29.2804 6.1553 30.9126 6.54987 32.2734 7.33902C33.6421 8.12027 34.6922 9.21717 35.4238 10.6297C36.1632 12.0344 36.5329 13.6719 36.5329 15.5421C36.5329 17.4045 36.1632 19.042 35.4238 20.4545C34.6922 21.8592 33.6421 22.9561 32.2734 23.7453C30.9126 24.5265 29.2804 24.9171 27.3768 24.9171ZM27.4122 20.5492C28.1044 20.5492 28.6904 20.3362 29.1702 19.91C29.6501 19.4839 30.0159 18.892 30.2676 18.1345C30.5271 17.3769 30.6569 16.5009 30.6569 15.5066C30.6569 14.4965 30.5271 13.6127 30.2676 12.8551C30.0159 12.0975 29.6501 11.5057 29.1702 11.0795C28.6904 10.6534 28.1044 10.4403 27.4122 10.4403C26.6964 10.4403 26.0907 10.6534 25.5951 11.0795C25.1074 11.5057 24.7338 12.0975 24.4742 12.8551C24.2225 13.6127 24.0966 14.4965 24.0966 15.5066C24.0966 16.5009 24.2225 17.3769 24.4742 18.1345C24.7338 18.892 25.1074 19.4839 25.5951 19.91C26.0907 20.3362 26.6964 20.5492 27.4122 20.5492Z" fill="#20304F"/>
<path d="M44.6919 19.8035L44.7155 12.9025H45.5179L50.6151 6.39205H57.1517L49.5767 15.7197H48.0547L44.6919 19.8035ZM39.4885 24.5739V0.33144H45.2583V24.5739H39.4885ZM50.7449 24.5739L46.0016 17.0218L49.8009 12.9143L57.4113 24.5739H50.7449Z" fill="#20304F"/>
<path d="M80.7027 12.4527C80.7027 15.0095 80.2425 17.2191 79.3222 19.0814C78.4019 20.9438 77.1394 22.3801 75.5347 23.3902C73.93 24.4003 72.0972 24.9053 70.0363 24.9053C67.9754 24.9053 66.1426 24.4003 64.538 23.3902C62.9333 22.3801 61.6708 20.9438 60.7505 19.0814C59.8301 17.2191 59.37 15.0095 59.37 12.4527C59.37 9.89583 59.8301 7.68624 60.7505 5.82386C61.6708 3.96149 62.9333 2.52525 64.538 1.51515C66.1426 0.505051 67.9754 0 70.0363 0C72.0972 0 73.93 0.505051 75.5347 1.51515C77.1394 2.52525 78.4019 3.96149 79.3222 5.82386C80.2425 7.68624 80.7027 9.89583 80.7027 12.4527ZM77.8709 12.4527C77.8709 10.3535 77.5209 8.58191 76.8208 7.13779C76.1286 5.69366 75.1886 4.6007 74.0008 3.8589C72.8209 3.11711 71.4994 2.74621 70.0363 2.74621C68.5732 2.74621 67.2478 3.11711 66.06 3.8589C64.8801 4.6007 63.9401 5.69366 63.2401 7.13779C62.5479 8.58191 62.2017 10.3535 62.2017 12.4527C62.2017 14.5518 62.5479 16.3234 63.2401 17.7675C63.9401 19.2117 64.8801 20.3046 66.06 21.0464C67.2478 21.7882 68.5732 22.1591 70.0363 22.1591C71.4994 22.1591 72.8209 21.7882 74.0008 21.0464C75.1886 20.3046 76.1286 19.2117 76.8208 17.7675C77.5209 16.3234 77.8709 14.5518 77.8709 12.4527Z" fill="#20304F"/>
<path d="M98.8379 6.39205C98.6963 5.19255 98.122 4.26136 97.1152 3.59849C96.1083 2.93561 94.8734 2.60417 93.4103 2.60417C92.3405 2.60417 91.4044 2.77778 90.6021 3.125C89.8076 3.47222 89.1862 3.94965 88.7379 4.55729C88.2974 5.16493 88.0771 5.85543 88.0771 6.62879C88.0771 7.27588 88.2305 7.83223 88.5373 8.29782C88.8519 8.75552 89.2531 9.13826 89.7408 9.44602C90.2285 9.7459 90.7398 9.99448 91.2747 10.1918C91.8095 10.3812 92.3012 10.535 92.7495 10.6534L95.2037 11.3163C95.833 11.482 96.5331 11.7109 97.304 12.0028C98.0827 12.2948 98.8261 12.6933 99.534 13.1984C100.25 13.6956 100.84 14.3348 101.304 15.116C101.768 15.8973 102 16.8561 102 17.9924C102 19.3024 101.658 20.4861 100.973 21.5436C100.297 22.601 99.3059 23.4414 98.0001 24.0649C96.7022 24.6883 95.1251 25 93.2687 25C91.5382 25 90.0397 24.7199 88.7732 24.1596C87.5147 23.5993 86.5236 22.818 85.7999 21.8158C85.0841 20.8136 84.679 19.6496 84.5846 18.3239H87.6051C87.6838 19.2393 87.9906 19.9968 88.5255 20.5966C89.0682 21.1884 89.7526 21.6304 90.5785 21.9223C91.4123 22.2064 92.309 22.3485 93.2687 22.3485C94.3857 22.3485 95.3886 22.167 96.2775 21.804C97.1663 21.4331 97.8703 20.9201 98.3895 20.2652C98.9087 19.6023 99.1682 18.8289 99.1682 17.9451C99.1682 17.1402 98.944 16.4852 98.4957 15.9801C98.0473 15.4751 97.4574 15.0647 96.7258 14.7491C95.9943 14.4334 95.2037 14.1572 94.3542 13.9205L91.3808 13.0682C89.493 12.5237 87.9985 11.7464 86.8972 10.7363C85.796 9.72617 85.2453 8.40436 85.2453 6.77083C85.2453 5.41351 85.6111 4.2298 86.3426 3.2197C87.0821 2.2017 88.0732 1.41256 89.316 0.852273C90.5667 0.284091 91.9629 0 93.5047 0C95.0622 0 96.4466 0.280145 97.658 0.840435C98.8693 1.39283 99.829 2.15041 100.537 3.11316C101.253 4.07592 101.63 5.16888 101.67 6.39205H98.8379Z" fill="#20304F"/>
</svg>
