<svg width="159" height="52" viewBox="0 0 159 52" fill="none" xmlns="http://www.w3.org/2000/svg">
<path d="M58.0029 37.5376V13.5342H63.7859V32.826H73.7396V37.5376H58.0029Z" fill="white"/>
<path d="M85.1098 37.8775C83.225 37.8775 81.605 37.4907 80.2498 36.7172C78.9024 35.9358 77.8626 34.8497 77.1305 33.4589C76.4062 32.0603 76.044 30.439 76.044 28.595C76.044 26.7431 76.4062 25.1218 77.1305 23.731C77.8626 22.3323 78.9024 21.2463 80.2498 20.4727C81.605 19.6913 83.225 19.3007 85.1098 19.3007C86.9946 19.3007 88.6107 19.6913 89.9581 20.4727C91.3133 21.2463 92.3531 22.3323 93.0774 23.731C93.8095 25.1218 94.1756 26.7431 94.1756 28.595C94.1756 30.439 93.8095 32.0603 93.0774 33.4589C92.3531 34.8497 91.3133 35.9358 89.9581 36.7172C88.6107 37.4907 86.9946 37.8775 85.1098 37.8775ZM85.1448 33.5527C85.8302 33.5527 86.4105 33.3417 86.8856 32.9198C87.3607 32.4978 87.7228 31.9118 87.9721 31.1617C88.2291 30.4116 88.3576 29.5443 88.3576 28.5598C88.3576 27.5596 88.2291 26.6845 87.9721 25.9344C87.7228 25.1843 87.3607 24.5983 86.8856 24.1764C86.4105 23.7544 85.8302 23.5435 85.1448 23.5435C84.4361 23.5435 83.8364 23.7544 83.3457 24.1764C82.8628 24.5983 82.4929 25.1843 82.2358 25.9344C81.9866 26.6845 81.862 27.5596 81.862 28.5598C81.862 29.5443 81.9866 30.4116 82.2358 31.1617C82.4929 31.9118 82.8628 32.4978 83.3457 32.9198C83.8364 33.3417 84.4361 33.5527 85.1448 33.5527Z" fill="white"/>
<path d="M102.254 32.8143L102.278 25.9813H103.072L108.119 19.5351H114.591L107.091 28.7708H105.584L102.254 32.8143ZM97.1021 37.5376V13.5342H102.815V37.5376H97.1021ZM108.247 37.5376L103.551 30.06L107.313 25.993L114.848 37.5376H108.247Z" fill="white"/>
<path d="M137.91 25.5359C137.91 28.0675 137.454 30.2553 136.543 32.0994C135.632 33.9434 134.382 35.3654 132.793 36.3656C131.204 37.3657 129.389 37.8658 127.349 37.8658C125.308 37.8658 123.493 37.3657 121.905 36.3656C120.316 35.3654 119.066 33.9434 118.154 32.0994C117.243 30.2553 116.788 28.0675 116.788 25.5359C116.788 23.0043 117.243 20.8165 118.154 18.9725C119.066 17.1285 120.316 15.7064 121.905 14.7063C123.493 13.7061 125.308 13.2061 127.349 13.2061C129.389 13.2061 131.204 13.7061 132.793 14.7063C134.382 15.7064 135.632 17.1285 136.543 18.9725C137.454 20.8165 137.91 23.0043 137.91 25.5359ZM135.106 25.5359C135.106 23.4575 134.759 21.7034 134.066 20.2735C133.381 18.8436 132.45 17.7614 131.274 17.0269C130.106 16.2924 128.797 15.9252 127.349 15.9252C125.9 15.9252 124.588 16.2924 123.412 17.0269C122.243 17.7614 121.313 18.8436 120.619 20.2735C119.934 21.7034 119.591 23.4575 119.591 25.5359C119.591 27.6143 119.934 29.3685 120.619 30.7984C121.313 32.2283 122.243 33.3105 123.412 34.0449C124.588 34.7794 125.9 35.1467 127.349 35.1467C128.797 35.1467 130.106 34.7794 131.274 34.0449C132.45 33.3105 133.381 32.2283 134.066 30.7984C134.759 29.3685 135.106 27.6143 135.106 25.5359Z" fill="white"/>
<path d="M155.866 19.5351C155.726 18.3474 155.158 17.4254 154.161 16.7691C153.164 16.1127 151.941 15.7845 150.492 15.7845C149.433 15.7845 148.506 15.9564 147.712 16.3002C146.925 16.644 146.31 17.1168 145.866 17.7184C145.43 18.3201 145.212 19.0037 145.212 19.7695C145.212 20.4102 145.363 20.9611 145.667 21.4221C145.979 21.8752 146.376 22.2542 146.859 22.5589C147.342 22.8559 147.848 23.102 148.378 23.2973C148.907 23.4849 149.394 23.6372 149.838 23.7544L152.268 24.4108C152.891 24.5749 153.584 24.8014 154.347 25.0905C155.119 25.3797 155.855 25.7742 156.556 26.2743C157.264 26.7666 157.848 27.3995 158.308 28.173C158.767 28.9466 158.997 29.8959 158.997 31.0211C158.997 32.3181 158.658 33.4902 157.981 34.5372C157.311 35.5842 156.33 36.4164 155.037 37.0336C153.752 37.6509 152.19 37.9596 150.352 37.9596C148.639 37.9596 147.155 37.6822 145.901 37.1274C144.655 36.5726 143.673 35.7991 142.957 34.8068C142.248 33.8144 141.847 32.6619 141.754 31.3492H144.744C144.822 32.2556 145.126 33.0057 145.656 33.5996C146.193 34.1856 146.871 34.6231 147.688 34.9123C148.514 35.1935 149.402 35.3342 150.352 35.3342C151.458 35.3342 152.451 35.1545 153.331 34.795C154.211 34.4278 154.908 33.9199 155.422 33.2714C155.936 32.6151 156.193 31.8493 156.193 30.9742C156.193 30.1772 155.971 29.5287 155.527 29.0286C155.084 28.5285 154.499 28.1222 153.775 27.8097C153.051 27.4971 152.268 27.2237 151.427 26.9893L148.483 26.1454C146.614 25.6062 145.134 24.8366 144.043 23.8365C142.953 22.8363 142.408 21.5275 142.408 19.9101C142.408 18.5662 142.77 17.3941 143.494 16.394C144.226 15.3861 145.208 14.6047 146.438 14.0499C147.677 13.4873 149.059 13.2061 150.586 13.2061C152.128 13.2061 153.499 13.4834 154.698 14.0382C155.897 14.5852 156.848 15.3353 157.549 16.2885C158.257 17.2418 158.631 18.324 158.67 19.5351H155.866Z" fill="white"/>
<path d="M51.0905 33.4221C51.0705 33.4419 51.0506 33.4518 51.0306 33.4715C50.9109 33.5505 50.8011 33.5604 50.6614 33.4715C50.1625 33.1555 49.6436 32.879 49.0948 32.6618C48.1868 32.2964 47.2389 32.0692 46.271 31.9606C45.5825 31.8816 44.904 31.8816 44.2155 31.9112C43.7465 31.931 43.2876 31.9903 42.8286 32.089C42.7986 32.0989 42.7687 32.0989 42.7388 32.1087C42.6988 32.1186 42.649 32.1384 42.619 32.0989C42.5991 32.0594 42.629 32.0297 42.639 32.0001C42.8884 31.457 42.9583 30.8744 42.8884 30.2819C42.8784 30.1535 42.8585 30.035 42.8485 29.9066C42.8385 29.7782 42.8385 29.7684 42.9683 29.7782C43.2676 29.798 43.557 29.8474 43.8563 29.8967C44.6845 30.035 45.5027 30.2325 46.301 30.4892C47.179 30.7756 48.0272 31.1509 48.8454 31.5854C49.4541 31.9112 50.0328 32.2766 50.5716 32.6914C50.6714 32.7605 50.7612 32.8395 50.861 32.9185C50.9608 32.9975 51.0406 33.0963 51.1004 33.2148C51.0905 33.274 51.0905 33.3431 51.0905 33.4221Z" fill="white"/>
<path d="M27.0153 42.389C26.6262 42.3989 26.2869 42.3396 25.9576 42.1915C25.6982 42.0829 25.4987 41.9051 25.359 41.6681C24.9399 40.967 24.3013 40.6115 23.493 40.5127C23.2137 40.4831 22.9442 40.4634 22.6649 40.5127C22.5252 40.5325 22.3855 40.5029 22.2558 40.4732C21.3078 40.2955 20.4996 39.8511 19.7911 39.2191C19.7313 39.1598 19.6614 39.1105 19.6016 39.0512C19.5716 39.0216 19.5217 39.0018 19.5417 38.9525C19.5616 38.9031 19.6215 38.9228 19.6515 38.9327C19.8809 38.9722 20.1104 38.9722 20.3399 38.9623C21.1981 38.9327 21.9464 38.6167 22.5751 38.044C22.9442 37.7181 23.3134 37.3922 23.6826 37.0565C24.0418 36.7405 24.4011 36.4146 24.7603 36.0986C25.2592 35.6542 25.7481 35.2197 26.247 34.7753C26.7359 34.3408 27.2249 33.8964 27.7138 33.4619C28.2826 32.9583 28.8513 32.4448 29.43 31.9412C29.6695 31.7239 29.909 31.5067 30.1585 31.2993C30.6474 30.8648 31.1363 30.4204 31.6252 29.9859C31.9845 29.6699 32.3337 29.3539 32.6929 29.0379C32.7129 29.0181 32.7328 28.9984 32.7528 28.9885C32.8326 28.9293 32.8625 28.9391 32.8825 29.028C32.9324 29.2453 32.9823 29.4625 33.0322 29.6699C33.2816 30.766 33.541 31.8622 33.7905 32.9484C33.9302 33.5409 34.0699 34.1334 34.1996 34.7259C34.2395 34.9037 34.2395 35.0913 34.2395 35.2789C34.2295 35.6048 34.1996 35.9208 34.1298 36.2368C33.9601 37.1058 33.6009 37.8958 33.0421 38.5772C32.3237 39.4462 31.4955 40.2066 30.5975 40.888C30.2582 41.1447 29.909 41.4015 29.5298 41.6187C29.0409 41.8952 28.522 42.1125 27.9732 42.2606C27.644 42.3396 27.3147 42.3989 27.0153 42.389Z" fill="white"/>
<path d="M41.6464 30.3612C41.6264 31.1117 41.5067 31.8918 41.1575 32.6324C40.9379 33.1064 40.6386 33.5113 40.1696 33.7878C39.9701 33.9063 39.7605 33.9656 39.531 33.9557C39.1618 33.9458 38.8126 34.0149 38.4733 34.1729C38.0942 34.3507 37.7848 34.6074 37.5354 34.9432C37.3757 35.1506 37.236 35.3777 37.1163 35.6147C37.0265 35.8023 36.8768 35.9505 36.7371 36.0986C36.2083 36.6318 35.5797 36.9972 34.8712 37.2638C34.6717 37.3428 34.4621 37.4021 34.2426 37.4613C34.2127 37.4712 34.1727 37.491 34.1528 37.4613C34.1229 37.4218 34.1628 37.3922 34.1827 37.3626C34.3324 37.1848 34.4621 36.9873 34.5719 36.7898C34.951 36.0788 35.0907 35.3283 34.951 34.5383C34.7315 33.3434 34.502 32.1485 34.2725 30.9438C33.9732 29.3342 33.6639 27.7245 33.3645 26.1149C33.0851 24.6139 32.7958 23.1227 32.5164 21.6217C32.4864 21.4637 32.4565 21.3156 32.4266 21.1576C32.4066 21.0193 32.4266 20.9996 32.5563 21.049C32.9953 21.1872 33.4244 21.3353 33.8534 21.4835C35.2703 21.9575 36.6773 22.4216 38.0942 22.8857C38.3336 22.9647 38.5332 23.103 38.7328 23.2412C39.531 23.7844 40.1596 24.4855 40.5987 25.3446C40.8082 25.7692 40.9479 26.2235 41.0776 26.6876C41.2772 27.3888 41.4169 28.0998 41.5067 28.8305C41.5965 29.3144 41.6264 29.8082 41.6464 30.3612Z" fill="white"/>
<path d="M40.4538 23.9627C40.3939 23.9331 40.3939 23.8837 40.374 23.8442C40.2043 23.4591 39.9649 23.1036 39.6755 22.7975C39.2265 22.3235 38.6677 22.0272 38.0491 21.8396C37.3705 21.6322 36.702 21.415 36.0235 21.2076C34.2574 20.6546 32.4912 20.0917 30.7251 19.5387C29.867 19.2721 29.0088 18.9956 28.1507 18.7289C27.1729 18.4228 26.205 18.1167 25.2271 17.8106C25.1673 17.7908 25.0675 17.8007 25.0575 17.7217C25.0475 17.6624 25.1273 17.6229 25.1772 17.5834C25.3868 17.3958 25.5863 17.2082 25.7959 17.0107C26.2649 16.5762 26.7338 16.1318 27.2028 15.6973C27.9212 15.0258 28.6496 14.3543 29.3681 13.6828C29.5377 13.5248 29.7372 13.426 29.9468 13.3174C30.5854 12.9817 31.2739 12.7743 31.9923 12.6854C32.5112 12.6261 33.0201 12.6656 33.5289 12.7545C34.856 12.9915 36.1233 13.4063 37.3506 13.9889C38.059 14.3247 38.6877 14.7789 39.2265 15.3418C39.5059 15.638 39.7354 15.9639 39.885 16.3392C40.0147 16.6552 40.0846 16.9811 40.0147 17.3267C39.9948 17.4551 39.9449 17.5736 39.8751 17.6822C39.6755 18.0179 39.5757 18.3932 39.5657 18.7882C39.5558 19.1536 39.6356 19.4992 39.7753 19.835C39.8751 20.0522 39.9748 20.2695 40.1145 20.4571C40.3141 20.7138 40.4239 21.0101 40.5037 21.3162C40.6134 21.7507 40.6733 22.1852 40.6633 22.6296C40.6533 23.0542 40.5935 23.469 40.5037 23.8837C40.4937 23.8936 40.4837 23.9331 40.4538 23.9627Z" fill="white"/>
<path d="M32.5012 12.754C32.8105 12.754 33.1498 12.7836 33.519 12.8528C34.8261 13.0898 36.0734 13.4848 37.3107 14.0773C38.0091 14.4032 38.6278 14.8574 39.1566 15.4104C39.456 15.7264 39.6655 16.0424 39.7952 16.3782C39.9349 16.7238 39.9748 17.0201 39.915 17.3163C39.895 17.4249 39.8551 17.5336 39.7853 17.6323C39.5857 17.9779 39.4759 18.3631 39.466 18.7877C39.456 19.1432 39.5258 19.4987 39.6855 19.874C39.7853 20.0912 39.885 20.3183 40.0347 20.5158C40.1944 20.7232 40.3141 20.98 40.4039 21.3355C40.5137 21.7897 40.5735 22.2143 40.5635 22.6192C40.5536 22.9649 40.5137 23.3302 40.4338 23.7252C40.2642 23.3599 40.0347 23.0241 39.7453 22.718C39.3163 22.2637 38.7675 21.9477 38.079 21.7305C37.7397 21.6317 37.4005 21.5231 37.0712 21.4145C36.7419 21.3058 36.3927 21.1972 36.0534 21.0985C35.1753 20.822 34.2773 20.5356 33.3992 20.2591C32.5311 19.9826 31.6331 19.7061 30.745 19.4197C30.316 19.2913 29.8769 19.1531 29.4579 19.0148C29.0388 18.8766 28.5997 18.7383 28.1707 18.6099C27.6817 18.4618 27.1928 18.3038 26.7139 18.1557C26.2249 17.9977 25.736 17.8496 25.2571 17.7014C25.2371 17.6916 25.2072 17.6916 25.1872 17.6817C25.1872 17.6817 25.1872 17.6817 25.1772 17.6817C25.1872 17.6817 25.1872 17.6718 25.1972 17.6718C25.2072 17.6619 25.2271 17.6521 25.2371 17.6422C25.4367 17.4546 25.6262 17.2768 25.8557 17.0694C26.0952 16.8522 26.3247 16.6349 26.5642 16.4078C26.7937 16.1906 27.0332 15.9733 27.2627 15.756C27.6219 15.4203 27.9811 15.0845 28.3403 14.7488C28.6995 14.413 29.0687 14.0773 29.4279 13.7415C29.5776 13.6033 29.7572 13.5045 29.9468 13.4157L29.9867 13.3959C30.6053 13.07 31.2739 12.8627 31.9923 12.7738C32.1619 12.7639 32.3316 12.754 32.5012 12.754ZM32.5012 12.6553C32.3316 12.6553 32.1619 12.6651 31.9923 12.6849C31.2739 12.7738 30.5854 12.9812 29.9468 13.3169C29.7372 13.4255 29.5377 13.5243 29.3681 13.6823C28.6496 14.3538 27.9212 15.0253 27.2028 15.6968C26.7338 16.1313 26.2649 16.5757 25.7959 17.0102C25.5863 17.2077 25.3868 17.3953 25.1772 17.5829C25.1273 17.6224 25.0475 17.6619 25.0575 17.7212C25.0675 17.8002 25.1673 17.7903 25.2271 17.8101C26.205 18.1162 27.1729 18.4223 28.1507 18.7284C29.0088 18.9951 29.867 19.2716 30.7251 19.5382C32.4912 20.0912 34.2574 20.6541 36.0235 21.2071C36.702 21.4145 37.3705 21.6317 38.0491 21.8391C38.6677 22.0267 39.2265 22.323 39.6755 22.797C39.9649 23.1031 40.2043 23.4586 40.374 23.8437C40.3939 23.8832 40.3939 23.9326 40.4538 23.9622C40.4837 23.9326 40.4937 23.8931 40.5037 23.8832C40.5935 23.4685 40.6533 23.0537 40.6633 22.6291C40.6733 22.1847 40.6134 21.7502 40.5037 21.3157C40.4239 21.0096 40.3141 20.7133 40.1145 20.4566C39.9748 20.269 39.8751 20.0517 39.7753 19.8345C39.6356 19.4987 39.5558 19.1531 39.5657 18.7877C39.5757 18.3927 39.6755 18.0174 39.8751 17.6817C39.9449 17.5731 39.9948 17.4546 40.0147 17.3262C40.0846 16.9806 40.0147 16.6547 39.885 16.3387C39.7354 15.9634 39.5059 15.6375 39.2265 15.3413C38.6877 14.7784 38.059 14.3242 37.3506 13.9884C36.1233 13.4058 34.856 12.991 33.5289 12.754C33.1897 12.6948 32.8405 12.6553 32.5012 12.6553Z" fill="white"/>
<path d="M31.4249 12.1801C31.355 12.1703 31.2852 12.1703 31.2253 12.1604C30.4969 12.0715 29.8184 12.19 29.1598 12.5159C28.8505 12.664 28.5811 12.8813 28.3317 13.0985C27.8327 13.533 27.3338 13.9675 26.8349 14.402C26.4358 14.7476 26.0367 15.1031 25.6375 15.4488C25.2384 15.7944 24.8493 16.14 24.4501 16.4758C24.1508 16.7424 23.8415 17.009 23.5421 17.2658C23.133 17.6213 22.7139 17.9867 22.3048 18.3422C21.9057 18.6878 21.5066 19.0433 21.1075 19.3889C20.7083 19.7346 20.3092 20.0802 19.9101 20.4357C19.5309 20.7714 19.1418 21.1072 18.7626 21.4331C18.563 21.601 18.3735 21.7787 18.1739 21.9466C18.0841 22.0256 18.0641 22.0157 18.0342 21.8972C17.9344 21.443 17.8346 20.9887 17.7348 20.5344C17.4455 19.2309 17.1761 17.9274 16.8767 16.6239C16.7271 15.9919 16.757 15.3797 16.8767 14.7575C17.0264 14.007 17.3158 13.3158 17.7648 12.6936C17.9444 12.4468 18.134 12.2196 18.3435 12.0024C18.8923 11.4197 19.481 10.8667 20.1196 10.373C20.5886 10.0076 21.0676 9.65211 21.5964 9.36573C22.255 9.01023 22.9534 8.7436 23.7018 8.6646C24.2007 8.61522 24.6996 8.64485 25.1586 8.89173C25.3681 9.00035 25.5278 9.14848 25.6475 9.35586C26.0467 10.0471 26.6553 10.4224 27.4336 10.5507C27.693 10.6001 27.9525 10.5902 28.2119 10.5804C28.7308 10.5507 29.1997 10.6989 29.6687 10.8964C30.3073 11.163 30.8561 11.5481 31.3451 12.032C31.375 12.0616 31.3949 12.0814 31.4249 12.111C31.4249 12.1406 31.4249 12.1505 31.4249 12.1801Z" fill="white"/>
<path d="M16.5265 13.7021C16.5364 13.7614 16.4866 13.791 16.4566 13.8305C15.9178 14.5415 15.6783 15.3513 15.7382 16.2302C15.7582 16.5363 15.838 16.8424 15.9078 17.1485C16.3369 19.1532 16.7659 21.1578 17.195 23.1625C17.5542 24.8412 17.9134 26.52 18.2627 28.2086C18.3724 28.732 18.4822 29.2455 18.6019 29.7689C18.6119 29.8281 18.6319 29.8775 18.6319 29.9368C18.6418 30.0256 18.6219 30.0553 18.5221 30.0256C18.3325 29.9763 18.1529 29.917 17.9733 29.8578C16.3369 29.3541 14.7104 28.8505 13.074 28.3567C12.635 28.2185 12.2558 27.9716 11.8966 27.6951C11.268 27.2211 10.7691 26.6385 10.3999 25.9472C10.1903 25.5522 10.0407 25.1375 9.91095 24.7128C9.6615 23.9327 9.49187 23.1328 9.37213 22.3231C9.32224 21.9281 9.28233 21.5429 9.26237 21.1479C9.22246 20.3678 9.32224 19.6074 9.59165 18.8668C9.72137 18.5014 9.90098 18.1657 10.1604 17.8694C10.34 17.662 10.5595 17.504 10.809 17.3954C10.9487 17.3362 11.0884 17.3065 11.248 17.3065C11.9166 17.3164 12.4853 17.0597 12.9543 16.6054C13.2237 16.3487 13.4332 16.0524 13.5829 15.7167C13.7426 15.3611 14.002 15.0846 14.2914 14.8279C14.9 14.2848 15.6185 13.9391 16.3968 13.7021C16.4367 13.7021 16.4766 13.6824 16.5265 13.7021Z" fill="white"/>
<path d="M20.1692 43.89C20.1493 42.626 21.187 41.3916 22.7037 41.3916C24.1006 41.3916 25.2282 42.4779 25.2182 43.89C25.2182 45.3515 24.0408 46.3983 22.6837 46.3884C21.187 46.3884 20.1493 45.1639 20.1692 43.89Z" fill="white"/>
<path d="M40.2472 39.5349C38.8103 39.5546 37.7127 38.3597 37.7227 37.0266C37.7327 35.654 38.8802 34.5381 40.2572 34.5381C41.5444 34.5381 42.7816 35.5552 42.7816 37.0365C42.7816 38.5572 41.5044 39.5645 40.2472 39.5349Z" fill="white"/>
<path d="M40.5762 18.8264C40.5862 17.5525 41.584 16.3379 43.1106 16.3379C44.4976 16.3379 45.6151 17.3945 45.6151 18.8264C45.6151 20.278 44.4577 21.3248 43.0807 21.3248C41.6738 21.3347 40.5762 20.199 40.5762 18.8264Z" fill="white"/>
<path d="M43.1106 16.4366C43.7592 16.4366 44.3679 16.6736 44.8169 17.118C45.2659 17.5624 45.5154 18.1648 45.5154 18.8264C45.5154 20.1694 44.4477 21.2261 43.0807 21.2261H43.0607C41.7436 21.2261 40.676 20.1497 40.676 18.8264C40.6859 17.6513 41.5939 16.4366 43.1106 16.4366ZM43.1106 16.3379C41.584 16.3379 40.5862 17.5525 40.5762 18.8264C40.5762 20.1892 41.6638 21.3248 43.0607 21.3248C43.0707 21.3248 43.0707 21.3248 43.0807 21.3248C44.4577 21.3248 45.6151 20.278 45.6151 18.8264C45.6151 17.3945 44.4976 16.3379 43.1106 16.3379Z" fill="url(#paint0_linear_19596_5474)"/>
<path d="M28.2448 9.66265C26.9477 9.6824 25.7303 8.62577 25.7403 7.16426C25.7403 5.762 26.9177 4.67574 28.2947 4.68561C29.5719 4.69549 30.7793 5.70275 30.7892 7.17413C30.7892 8.66527 29.542 9.70215 28.2448 9.66265Z" fill="white"/>
<path d="M10.7399 16.5252C9.48262 16.5351 8.23535 15.5476 8.23535 14.0367C8.23535 12.506 9.52253 11.5284 10.7698 11.5481C12.0969 11.558 13.2843 12.6344 13.2743 14.0564C13.2643 15.4686 12.0869 16.5548 10.7399 16.5252Z" fill="white"/>
<path d="M31.7528 48.4918C31.7528 49.3213 31.7029 50.0027 31.5932 50.6841C31.5732 50.8125 31.5433 50.9408 31.4734 51.0593C31.4036 51.168 31.3238 51.2173 31.224 51.1877C31.1043 51.1581 30.9945 51.0593 30.9845 50.9408C30.9845 50.8915 30.9845 50.8421 30.9845 50.8026C31.0344 50.378 30.9945 49.9533 30.9646 49.5287C30.9147 48.9263 30.7949 48.3338 30.6353 47.7413C30.3559 46.7341 29.9268 45.7861 29.378 44.8973C29.0488 44.3739 28.6895 43.8703 28.2804 43.4062C28.2405 43.3667 28.1707 43.3272 28.2006 43.2679C28.2305 43.2087 28.3004 43.2284 28.3603 43.2284C28.7594 43.1889 29.1386 43.0507 29.4978 42.8729C29.7572 42.7347 29.9967 42.5767 30.2262 42.3989C30.3559 42.3002 30.3659 42.3002 30.4357 42.4483C30.8249 43.3173 31.1242 44.2159 31.3437 45.1442C31.5233 45.8947 31.6431 46.6551 31.7029 47.4253C31.7329 47.8203 31.7628 48.2252 31.7528 48.4918Z" fill="white"/>
<path d="M44.8862 7.54883C45.0259 7.54883 45.1157 7.60808 45.1456 7.70683C45.1755 7.83521 45.1256 7.96358 45.0059 8.02283C44.4671 8.29933 43.9582 8.62521 43.4793 8.99059C42.8007 9.52384 42.1921 10.1262 41.6632 10.8076C40.875 11.8149 40.2663 12.911 39.8572 14.1158C39.8472 14.1454 39.8372 14.1651 39.8272 14.1948C39.7873 14.2738 39.7574 14.2836 39.7075 14.2046C39.2784 13.6023 38.6798 13.2369 38.0012 12.9801C37.9913 12.9801 37.9813 12.9702 37.9713 12.9702C37.8516 12.9209 37.8516 12.9209 37.9214 12.8221C38.1509 12.4864 38.4103 12.1704 38.6798 11.8642C39.029 11.4495 39.4082 11.0545 39.8073 10.6792C40.5656 9.96822 41.3838 9.32634 42.2719 8.78321C42.9704 8.34871 43.6988 7.96358 44.4771 7.66733C44.5669 7.6377 44.6567 7.60808 44.7465 7.57845C44.7864 7.5587 44.8363 7.5587 44.8862 7.54883Z" fill="white"/>
<path d="M44.8961 7.64758C44.976 7.64758 45.0358 7.6772 45.0458 7.73645C45.0658 7.82533 45.0259 7.90433 44.956 7.94383C44.4272 8.21046 43.9083 8.54621 43.4094 8.92146C42.7109 9.46459 42.0923 10.0867 41.5734 10.7582C40.7652 11.7852 40.1565 12.911 39.7474 14.096C39.7474 14.1059 39.7474 14.1059 39.7374 14.1158C39.3383 13.5825 38.7995 13.1974 38.0212 12.9011L38.0012 12.8912C38.0012 12.8912 37.9913 12.8912 37.9913 12.8814C38.1908 12.595 38.4303 12.2889 38.7396 11.9334C39.0689 11.5384 39.4481 11.1434 39.8572 10.7582C40.6455 10.0176 41.4637 9.38559 42.3018 8.87209C43.0701 8.39808 43.7786 8.03271 44.487 7.76608L44.7565 7.6772H44.7664H44.7764C44.7864 7.66733 44.8163 7.66733 44.8363 7.66733C44.8662 7.64758 44.8762 7.64758 44.8961 7.64758ZM44.8862 7.54883C44.8363 7.5587 44.7864 7.5587 44.7465 7.57845C44.6567 7.60808 44.5669 7.6377 44.4771 7.66733C43.6988 7.96358 42.9704 8.34871 42.2719 8.78321C41.3838 9.32634 40.5656 9.96822 39.8073 10.6792C39.4082 11.0545 39.029 11.4495 38.6798 11.8642C38.4103 12.1704 38.1509 12.4864 37.9214 12.8221C37.8516 12.9209 37.8516 12.9209 37.9713 12.9702C37.9813 12.9702 37.9913 12.9801 38.0012 12.9801C38.6798 13.2369 39.2784 13.6023 39.7075 14.2046C39.7275 14.2441 39.7474 14.2639 39.7674 14.2639C39.7873 14.2639 39.8073 14.2441 39.8272 14.1948C39.8372 14.1651 39.8472 14.1454 39.8572 14.1158C40.2663 12.911 40.875 11.8149 41.6632 10.8076C42.1921 10.1262 42.8007 9.52384 43.4793 8.99059C43.9582 8.62521 44.4671 8.29933 45.0059 8.02283C45.1256 7.96358 45.1755 7.83521 45.1456 7.70683C45.1157 7.60808 45.0259 7.54883 44.8862 7.54883Z" fill="url(#paint1_linear_19596_5474)"/>
<path d="M19.1236 2.33541C19.1137 1.66391 19.1636 1.06153 19.2534 0.459146C19.2733 0.340645 19.3033 0.23202 19.3631 0.133269C19.433 0.0246429 19.5028 -0.0148574 19.6126 0.00489275C19.7124 0.0246429 19.8221 0.133269 19.8221 0.23202C19.8221 0.281395 19.8221 0.340645 19.8121 0.390021C19.7922 0.557897 19.7922 0.715898 19.8121 0.8739C19.8321 1.09115 19.8321 1.3084 19.8521 1.51578C19.9119 2.13791 20.0317 2.75016 20.2013 3.34267C20.6204 4.77456 21.3188 6.05832 22.2468 7.23345C22.3865 7.4112 22.5462 7.57908 22.6958 7.74695C22.7158 7.77658 22.7557 7.79633 22.7357 7.83583C22.7158 7.86545 22.6759 7.86546 22.6459 7.86546C21.9375 7.93458 21.3388 8.26046 20.8 8.69496C20.6204 8.84309 20.6204 8.84309 20.5206 8.62584C19.9818 7.46058 19.6026 6.24594 19.3731 4.98193C19.2733 4.44868 19.2035 3.91542 19.1636 3.38217C19.1336 3.03654 19.1037 2.65141 19.1236 2.33541Z" fill="white"/>
<path d="M18.7232 38.6367C18.0946 38.617 17.5058 38.5281 16.9171 38.3997C16.2686 38.2516 15.63 38.0837 15.0013 37.8566C14.3029 37.5998 13.6044 37.3332 12.9857 36.9184C12.4769 36.5728 11.9979 36.1778 11.6387 35.6742C11.3593 35.2891 11.1797 34.8644 11.1498 34.3904C11.1398 34.183 11.1697 33.9855 11.2795 33.8078C11.479 33.4622 11.5688 33.0869 11.5788 32.7018C11.5888 32.3364 11.499 31.9809 11.3493 31.6452C11.2296 31.3884 11.0899 31.1415 10.9103 30.9144C10.8604 30.8551 10.8205 30.786 10.7905 30.7169C10.581 30.2626 10.4613 29.7886 10.4114 29.285C10.3515 28.7123 10.4114 28.1494 10.5211 27.5865C10.5311 27.5272 10.5211 27.4384 10.591 27.4285C10.6708 27.4186 10.6708 27.5075 10.7007 27.5667C11.1797 28.5444 11.9281 29.206 12.9957 29.5023C13.4946 29.6405 13.9836 29.7886 14.4825 29.9269C15.0612 30.0948 15.6399 30.2626 16.2187 30.4206C16.9271 30.6181 17.6256 30.8255 18.334 31.023C19.3219 31.3094 20.3097 31.5859 21.2975 31.8723C22.3652 32.1784 23.4329 32.4845 24.5005 32.7907C25.0094 32.9388 25.5183 33.077 26.0172 33.2252C26.2567 33.2943 26.2567 33.314 26.0871 33.4819C24.9595 34.5879 23.822 35.7038 22.6945 36.8098C22.455 37.0369 22.2155 37.2641 21.986 37.4912C21.8863 37.5899 21.7665 37.6788 21.6468 37.7479C20.9084 38.2121 20.1002 38.4886 19.2221 38.5873C19.0325 38.6268 18.8629 38.6268 18.7232 38.6367Z" fill="white"/>
<path d="M7.97669 34.7353C6.56977 34.7255 5.44224 33.6293 5.45221 32.2271C5.46219 30.7557 6.66955 29.7188 8.0166 29.7386C9.37363 29.7583 10.5311 30.8643 10.5012 32.2863C10.4812 33.5602 9.44348 34.7255 7.97669 34.7353Z" fill="white"/>
<path d="M6.08057 43.3567C6.05063 43.3567 6.03068 43.3567 6.01072 43.3567C5.88101 43.3468 5.80118 43.2974 5.78122 43.1987C5.75129 43.09 5.81116 42.9715 5.90096 42.9123C6.1105 42.7938 6.33002 42.6753 6.53956 42.5568C7.05843 42.2507 7.53738 41.8952 7.9864 41.4903C9.33345 40.2855 10.3013 38.8339 10.9599 37.165C11.0198 37.0267 11.0597 36.8786 11.1096 36.7305C11.1395 36.6416 11.1694 36.6416 11.2293 36.7107C11.6484 37.3131 12.257 37.6587 12.9256 37.9254C12.9356 37.9254 12.9455 37.9352 12.9555 37.9352C13.0852 37.9945 13.0952 37.9945 13.0154 38.113C12.7859 38.429 12.5364 38.7351 12.287 39.0314C11.8879 39.5054 11.4488 39.9596 10.9798 40.3744C10.1417 41.1446 9.22369 41.8162 8.22587 42.3889C7.65712 42.7148 7.06841 43.011 6.44976 43.248C6.32004 43.3172 6.20031 43.3665 6.08057 43.3567Z" fill="white"/>
<path d="M8.52633 18.9851C8.51636 19.0147 8.51636 19.0345 8.50638 19.0542C8.21701 19.7158 8.21701 20.4071 8.33675 21.1082C8.33675 21.128 8.34673 21.1477 8.34673 21.1675C8.36668 21.2959 8.35671 21.3156 8.22699 21.3057C8.0873 21.2959 7.9476 21.286 7.81788 21.2761C6.83005 21.1774 5.85219 20.9799 4.89429 20.7033C3.88649 20.4071 2.92859 20.0121 2.00062 19.5282C1.39195 19.2023 0.803241 18.837 0.254443 18.4222C0.16464 18.3531 0.0947925 18.2741 0.0449017 18.1852C-0.0149672 18.0865 -0.0149672 17.9778 0.0449017 17.9186C0.114749 17.8396 0.254443 17.81 0.354225 17.8495C0.384159 17.8593 0.424072 17.8791 0.454006 17.8988C1.59152 18.5506 2.80885 18.9653 4.10601 19.153C4.85437 19.2616 5.60273 19.3011 6.3511 19.2616C7.02961 19.232 7.69815 19.1431 8.3567 18.995C8.4066 18.9851 8.45649 18.9653 8.52633 18.9851Z" fill="white"/>
<defs>
<linearGradient id="paint0_linear_19596_5474" x1="42.1309" y1="16.5233" x2="44.0351" y2="21.1485" gradientUnits="userSpaceOnUse">
<stop stop-color="#28A3DD"/>
<stop offset="1" stop-color="#3C6EB4"/>
</linearGradient>
<linearGradient id="paint1_linear_19596_5474" x1="41.7458" y1="14.1465" x2="41.365" y2="7.75924" gradientUnits="userSpaceOnUse">
<stop stop-color="#2763AF"/>
<stop offset="1" stop-color="#2586C7"/>
</linearGradient>
</defs>
</svg>
