<svg width="18" height="18" viewBox="0 0 18 18" fill="none" xmlns="http://www.w3.org/2000/svg">
<mask id="mask0_19920_5318" style="mask-type:alpha" maskUnits="userSpaceOnUse" x="0" y="0" width="18" height="18">
<rect width="18" height="18" transform="matrix(-1 0 0 1 18 0)" fill="#D9D9D9"/>
</mask>
<g mask="url(#mask0_19920_5318)">
<path d="M1.32222 17.4053L7.27222 11.5864C7.74444 11.9558 8.2875 12.2483 8.90139 12.4639C9.51528 12.6794 10.1685 12.7871 10.8611 12.7871C12.5769 12.7871 14.0289 12.206 15.2174 11.0438C16.4058 9.88151 17 8.46141 17 6.78346C17 5.10551 16.4058 3.68541 15.2174 2.52316C14.0289 1.36091 12.5769 0.779785 10.8611 0.779785C9.14537 0.779785 7.69329 1.36091 6.50486 2.52316C5.31644 3.68541 4.72222 5.10551 4.72222 6.78346C4.72222 7.46079 4.83241 8.09965 5.05278 8.70001C5.27315 9.30038 5.57222 9.83147 5.95 10.2933L0 16.1122L1.32222 17.4053ZM10.8611 10.9398C9.68056 10.9398 8.67708 10.5358 7.85069 9.72756C7.02431 8.91938 6.61111 7.93801 6.61111 6.78346C6.61111 5.6289 7.02431 4.64753 7.85069 3.83935C8.67708 3.03116 9.68056 2.62707 10.8611 2.62707C12.0417 2.62707 13.0451 3.03116 13.8715 3.83935C14.6979 4.64753 15.1111 5.6289 15.1111 6.78346C15.1111 7.93801 14.6979 8.91938 13.8715 9.72756C13.0451 10.5358 12.0417 10.9398 10.8611 10.9398Z" fill="white"/>
</g>
</svg>
