<svg width="18" height="19" viewBox="0 0 18 19" fill="none" xmlns="http://www.w3.org/2000/svg">
<mask id="mask0_16386_23969" style="mask-type:alpha" maskUnits="userSpaceOnUse" x="0" y="0" width="18" height="19">
<rect width="18" height="18" transform="matrix(-1 0 0 1 18 0.5)" fill="#D9D9D9"/>
</mask>
<g mask="url(#mask0_16386_23969)">
<path d="M1.32222 17.9048L7.27222 12.0859C7.74444 12.4554 8.2875 12.7478 8.90139 12.9634C9.51528 13.1789 10.1685 13.2866 10.8611 13.2866C12.5769 13.2866 14.0289 12.7055 15.2174 11.5433C16.4058 10.381 17 8.96092 17 7.28297C17 5.60502 16.4058 4.18492 15.2174 3.02267C14.0289 1.86042 12.5769 1.2793 10.8611 1.2793C9.14537 1.2793 7.69329 1.86042 6.50486 3.02267C5.31644 4.18492 4.72222 5.60502 4.72222 7.28297C4.72222 7.96031 4.83241 8.59916 5.05278 9.19952C5.27315 9.79989 5.57222 10.331 5.95 10.7928L0 16.6118L1.32222 17.9048ZM10.8611 11.4394C9.68056 11.4394 8.67708 11.0353 7.85069 10.2271C7.02431 9.41889 6.61111 8.43752 6.61111 7.28297C6.61111 6.12842 7.02431 5.14705 7.85069 4.33886C8.67708 3.53067 9.68056 3.12658 10.8611 3.12658C12.0417 3.12658 13.0451 3.53067 13.8715 4.33886C14.6979 5.14705 15.1111 6.12842 15.1111 7.28297C15.1111 8.43752 14.6979 9.41889 13.8715 10.2271C13.0451 11.0353 12.0417 11.4394 10.8611 11.4394Z" fill="#20304F"/>
</g>
</svg>
