<svg width="18" height="15" viewBox="0 0 18 15" fill="none" xmlns="http://www.w3.org/2000/svg">
<path d="M8.64691 15C7.65941 15.0027 6.68121 14.8091 5.76918 14.4305C4.85715 14.0518 4.02948 13.4957 3.33427 12.7944C3.28076 12.7407 3.23835 12.677 3.20946 12.6069C3.18057 12.5369 3.16576 12.4618 3.16588 12.386C3.166 12.3102 3.18105 12.2352 3.21016 12.1652C3.23928 12.0952 3.28189 12.0317 3.33557 11.9782C3.38925 11.9247 3.45294 11.8823 3.52301 11.8534C3.59308 11.8245 3.66815 11.8097 3.74394 11.8098C3.81973 11.8099 3.89476 11.8249 3.96474 11.8541C4.03471 11.8832 4.09827 11.9258 4.15178 11.9795C5.03843 12.8692 6.16916 13.4757 7.40077 13.7224C8.63239 13.969 9.9095 13.8446 11.0704 13.365C12.2313 12.8853 13.2237 12.0719 13.922 11.0279C14.6203 9.9838 14.9931 8.75599 14.9931 7.49992C14.9931 7.34691 15.0539 7.20016 15.1621 7.09197C15.2703 6.98377 15.417 6.92299 15.57 6.92299C15.723 6.92299 15.8698 6.98377 15.978 7.09197C16.0862 7.20016 16.147 7.34691 16.147 7.49992C16.1447 9.48838 15.3539 11.3948 13.9478 12.8008C12.5417 14.2069 10.6354 14.9978 8.64691 15ZM1.72378 8.07684C1.57077 8.07684 1.42402 8.01606 1.31583 7.90787C1.20763 7.79967 1.14685 7.65293 1.14685 7.49992C1.14688 6.01766 1.58612 4.56865 2.4091 3.33585C3.23208 2.10306 4.4019 1.14177 5.77084 0.573365C7.13978 0.00496068 8.64646 -0.145065 10.1006 0.142233C11.5547 0.42953 12.8912 1.14127 13.9411 2.18757C14.0494 2.29563 14.1104 2.4423 14.1106 2.59532C14.1108 2.74833 14.0502 2.89516 13.9421 3.00349C13.834 3.11182 13.6874 3.17279 13.5343 3.17298C13.3813 3.17316 13.2345 3.11256 13.1262 3.0045C12.2377 2.11929 11.1069 1.51717 9.87653 1.27417C8.64614 1.03116 7.37133 1.15817 6.21307 1.63915C5.05481 2.12014 4.06503 2.93353 3.36871 3.97663C2.67238 5.01973 2.30074 6.24576 2.30071 7.49992C2.30071 7.65293 2.23992 7.79967 2.13173 7.90787C2.02353 8.01606 1.87679 8.07684 1.72378 8.07684Z" fill="#20304F"/>
<path d="M1.72369 8.0765C1.64792 8.07661 1.57287 8.06173 1.50287 8.03272C1.43286 8.00371 1.36929 7.96114 1.31581 7.90746L0.16195 6.7536C0.0568583 6.64479 -0.00129267 6.49906 2.18094e-05 6.34779C0.00133629 6.19652 0.0620111 6.05182 0.168978 5.94486C0.275945 5.83789 0.420646 5.77722 0.571914 5.7759C0.723183 5.77459 0.868916 5.83274 0.977726 5.93783L2.13158 7.09168C2.21224 7.17237 2.26717 7.27516 2.28942 7.38705C2.31167 7.49895 2.30024 7.61493 2.25659 7.72034C2.21293 7.82574 2.139 7.91583 2.04415 7.97923C1.9493 8.04263 1.83778 8.07647 1.72369 8.0765Z" fill="#20304F"/>
<path d="M1.72365 8.0765C1.60957 8.07647 1.49805 8.04263 1.4032 7.97923C1.30834 7.91583 1.23442 7.82574 1.19076 7.72034C1.1471 7.61493 1.13568 7.49895 1.15793 7.38705C1.18018 7.27516 1.23511 7.17237 1.31577 7.09168L2.46962 5.93783C2.57843 5.83274 2.72417 5.77459 2.87543 5.7759C3.0267 5.77722 3.1714 5.83789 3.27837 5.94486C3.38534 6.05182 3.44601 6.19652 3.44733 6.34779C3.44864 6.49906 3.39049 6.64479 3.2854 6.7536L2.13154 7.90746C2.07806 7.96114 2.01449 8.00371 1.94448 8.03272C1.87448 8.06173 1.79943 8.07661 1.72365 8.0765ZM16.7238 8.94189C16.648 8.942 16.5729 8.92712 16.5029 8.89811C16.4329 8.8691 16.3694 8.82653 16.3159 8.77285L15.162 7.619C15.0569 7.51019 14.9988 7.36445 15.0001 7.21318C15.0014 7.06192 15.0621 6.91721 15.1691 6.81025C15.276 6.70328 15.4207 6.64261 15.572 6.64129C15.7233 6.63998 15.869 6.69813 15.9778 6.80322L17.1317 7.95707C17.2123 8.03776 17.2672 8.14055 17.2895 8.25244C17.3117 8.36434 17.3003 8.48032 17.2567 8.58573C17.213 8.69113 17.1391 8.78123 17.0442 8.84462C16.9494 8.90802 16.8379 8.94187 16.7238 8.94189Z" fill="#20304F"/>
<path d="M14.4161 8.94213C14.302 8.9421 14.1905 8.90825 14.0957 8.84486C14.0008 8.78146 13.9269 8.69137 13.8832 8.58596C13.8396 8.48056 13.8281 8.36458 13.8504 8.25268C13.8726 8.14078 13.9276 8.038 14.0082 7.95731L15.1621 6.80346C15.2709 6.69837 15.4166 6.64021 15.5679 6.64153C15.7192 6.64284 15.8639 6.70352 15.9708 6.81049C16.0778 6.91745 16.1385 7.06215 16.1398 7.21342C16.1411 7.36469 16.083 7.51042 15.9779 7.61923L14.824 8.77309C14.7705 8.82677 14.707 8.86934 14.6369 8.89835C14.5669 8.92736 14.4919 8.94224 14.4161 8.94213ZM8.64685 8.94213C8.07632 8.94213 7.5186 8.77295 7.04423 8.45598C6.56985 8.13901 6.20012 7.68849 5.98179 7.16139C5.76346 6.63429 5.70633 6.05429 5.81764 5.49473C5.92894 4.93516 6.20368 4.42117 6.6071 4.01774C7.01052 3.61432 7.52452 3.33958 8.08408 3.22828C8.64365 3.11698 9.22365 3.1741 9.75075 3.39243C10.2778 3.61076 10.7284 3.9805 11.0453 4.45487C11.3623 4.92925 11.5315 5.48696 11.5315 6.05749C11.5306 6.82229 11.2265 7.55552 10.6857 8.09631C10.1449 8.6371 9.41164 8.94129 8.64685 8.94213ZM8.64685 4.32671C8.30453 4.32671 7.9699 4.42822 7.68527 4.6184C7.40065 4.80858 7.17881 5.07889 7.04781 5.39515C6.91681 5.71141 6.88254 6.05941 6.94932 6.39515C7.0161 6.73089 7.18094 7.03928 7.423 7.28134C7.66505 7.52339 7.97345 7.68823 8.30919 7.75502C8.64493 7.8218 8.99293 7.78752 9.30919 7.65652C9.62545 7.52553 9.89576 7.30369 10.0859 7.01906C10.2761 6.73444 10.3776 6.39981 10.3776 6.05749C10.3772 5.5986 10.1947 5.15863 9.87019 4.83415C9.5457 4.50966 9.10574 4.32717 8.64685 4.32671Z" fill="#20304F"/>
<path d="M11.82 11.8271C11.667 11.8271 11.5202 11.7663 11.412 11.6581C11.3038 11.5499 11.2431 11.4031 11.2431 11.2501V10.0963C11.2431 9.79026 11.1215 9.49678 10.9051 9.28039C10.6887 9.064 10.3952 8.94243 10.0892 8.94243H7.20456C6.89854 8.94243 6.60505 9.064 6.38866 9.28039C6.17227 9.49678 6.05071 9.79026 6.05071 10.0963V11.2501C6.05071 11.4031 5.98992 11.5499 5.88173 11.6581C5.77353 11.7663 5.62679 11.8271 5.47378 11.8271C5.32077 11.8271 5.17402 11.7663 5.06583 11.6581C4.95763 11.5499 4.89685 11.4031 4.89685 11.2501V10.0963C4.89754 9.48445 5.14089 8.89788 5.57352 8.46525C6.00615 8.03261 6.59273 7.78926 7.20456 7.78857H10.0892C10.701 7.78926 11.2876 8.03261 11.7202 8.46525C12.1529 8.89788 12.3962 9.48445 12.3969 10.0963V11.2501C12.3969 11.4031 12.3361 11.5499 12.2279 11.6581C12.1197 11.7663 11.973 11.8271 11.82 11.8271Z" fill="#20304F"/>
</svg>
