<svg width="23" height="23" viewBox="0 0 23 23" fill="none" xmlns="http://www.w3.org/2000/svg">
<path d="M8.89519 10.6961C8.43318 10.2361 7.74016 10.2361 7.27815 10.6961C6.81614 11.1561 6.81614 11.8461 7.27815 12.3061L10.7432 15.7561C10.9743 15.9861 11.2053 16.1011 11.5518 16.1011C11.8983 16.1011 12.1293 15.9861 12.3603 15.7561L20.4455 6.55612C20.792 5.98112 20.792 5.29112 20.2145 4.94612C19.7525 4.60112 19.0595 4.60112 18.713 5.06112L11.5518 13.2261L8.89519 10.6961Z" fill="#02BC7D"/>
<path d="M21.9456 10.35C21.2526 10.35 20.7906 10.81 20.7906 11.5C20.7906 16.56 16.6325 20.7 11.5503 20.7C6.46818 20.7 2.31006 16.56 2.31006 11.5C2.31006 9.085 3.23409 6.785 4.96664 5.06C6.69919 3.22 9.00925 2.3 11.5503 2.3C12.2433 2.3 13.0519 2.415 13.7449 2.53C14.3224 2.76 15.0154 2.415 15.2464 1.725C15.4774 1.035 15.0154 0.575 14.4379 0.345H14.3224C13.3984 0.115 12.4743 0 11.5503 0C5.19764 0 0 5.175 0 11.615C0 14.605 1.27054 17.595 3.34959 19.665C5.54415 21.85 8.43173 23 11.4348 23C17.7875 23 22.9851 17.825 22.9851 11.5C23.1006 10.81 22.5231 10.35 21.9456 10.35Z" fill="#02BC7D"/>
</svg>
