<svg width="22" height="22" viewBox="0 0 22 22" fill="none" xmlns="http://www.w3.org/2000/svg">
<g clip-path="url(#clip0_18813_36756)">
<path d="M11 16.5C14.0376 16.5 16.5 14.0376 16.5 11C16.5 7.96243 14.0376 5.5 11 5.5C7.96243 5.5 5.5 7.96243 5.5 11C5.5 14.0376 7.96243 16.5 11 16.5Z" fill="#F6AF0F"/>
<path d="M11 18.3333C10.7569 18.3333 10.5237 18.4299 10.3518 18.6018C10.1799 18.7737 10.0833 19.0069 10.0833 19.25V21.0833C10.0833 21.3264 10.1799 21.5596 10.3518 21.7315C10.5237 21.9034 10.7569 22 11 22C11.2431 22 11.4763 21.9034 11.6482 21.7315C11.8201 21.5596 11.9167 21.3264 11.9167 21.0833V19.25C11.9167 19.0069 11.8201 18.7737 11.6482 18.6018C11.4763 18.4299 11.2431 18.3333 11 18.3333ZM11 3.66667C11.2431 3.66667 11.4763 3.57009 11.6482 3.39818C11.8201 3.22627 11.9167 2.99312 11.9167 2.75V0.916667C11.9167 0.673552 11.8201 0.440394 11.6482 0.268485C11.4763 0.0965771 11.2431 0 11 0C10.7569 0 10.5237 0.0965771 10.3518 0.268485C10.1799 0.440394 10.0833 0.673552 10.0833 0.916667V2.75C10.0833 2.99312 10.1799 3.22627 10.3518 3.39818C10.5237 3.57009 10.7569 3.66667 11 3.66667ZM3.66667 11C3.66667 10.7569 3.57009 10.5237 3.39818 10.3518C3.22627 10.1799 2.99312 10.0833 2.75 10.0833H0.916667C0.673552 10.0833 0.440394 10.1799 0.268485 10.3518C0.0965771 10.5237 0 10.7569 0 11C0 11.2431 0.0965771 11.4763 0.268485 11.6482C0.440394 11.8201 0.673552 11.9167 0.916667 11.9167H2.75C2.99312 11.9167 3.22627 11.8201 3.39818 11.6482C3.57009 11.4763 3.66667 11.2431 3.66667 11ZM21.0833 10.0833H19.25C19.0069 10.0833 18.7737 10.1799 18.6018 10.3518C18.4299 10.5237 18.3333 10.7569 18.3333 11C18.3333 11.2431 18.4299 11.4763 18.6018 11.6482C18.7737 11.8201 19.0069 11.9167 19.25 11.9167H21.0833C21.3264 11.9167 21.5596 11.8201 21.7315 11.6482C21.9034 11.4763 22 11.2431 22 11C22 10.7569 21.9034 10.5237 21.7315 10.3518C21.5596 10.1799 21.3264 10.0833 21.0833 10.0833ZM17.4818 16.1856C17.3089 16.0186 17.0773 15.9262 16.837 15.9283C16.5966 15.9304 16.3667 16.0268 16.1968 16.1968C16.0268 16.3667 15.9304 16.5966 15.9283 16.837C15.9262 17.0773 16.0186 17.3089 16.1856 17.4818L17.4818 18.7779C17.655 18.9471 17.8876 19.0418 18.1298 19.0418C18.372 19.0418 18.6046 18.9471 18.7779 18.7779C18.9498 18.606 19.0463 18.3729 19.0463 18.1298C19.0463 17.8868 18.9498 17.6537 18.7779 17.4818L17.4818 16.1856ZM4.51825 5.81442C4.69143 5.98384 4.92407 6.07871 5.16633 6.07871C5.4086 6.07871 5.64124 5.98384 5.81442 5.81442C5.98627 5.64252 6.0828 5.4094 6.0828 5.16633C6.0828 4.92327 5.98627 4.69015 5.81442 4.51825L4.51825 3.22208C4.34536 3.05511 4.11381 2.96271 3.87347 2.9648C3.63312 2.96689 3.40321 3.06329 3.23325 3.23325C3.06329 3.40321 2.96689 3.63312 2.9648 3.87347C2.96271 4.11381 3.05511 4.34536 3.22208 4.51825L4.51825 5.81442ZM4.51825 16.1856L3.22208 17.4818C3.05024 17.6537 2.9537 17.8868 2.9537 18.1298C2.9537 18.3729 3.05024 18.606 3.22208 18.7779C3.39526 18.9473 3.6279 19.0422 3.87017 19.0422C4.11244 19.0422 4.34507 18.9473 4.51825 18.7779L5.81442 17.4818C5.98139 17.3089 6.07379 17.0773 6.0717 16.837C6.06961 16.5966 5.97321 16.3667 5.80325 16.1968C5.63329 16.0268 5.40338 15.9304 5.16303 15.9283C4.92269 15.9262 4.69114 16.0186 4.51825 16.1856ZM16.8337 6.072C16.9533 6.07372 17.0721 6.05186 17.1833 6.00767C17.2945 5.96347 17.3959 5.8978 17.4818 5.81442L18.7779 4.51825C18.9449 4.34536 19.0373 4.11381 19.0352 3.87347C19.0331 3.63312 18.9367 3.40321 18.7668 3.23325C18.5968 3.06329 18.3669 2.96689 18.1265 2.9648C17.8862 2.96271 17.6546 3.05511 17.4818 3.22208L16.1856 4.51825C16.0557 4.64493 15.967 4.80769 15.9307 4.98543C15.8944 5.16316 15.9124 5.3477 15.9822 5.51512C16.052 5.68254 16.1705 5.82513 16.3223 5.92442C16.4742 6.02371 16.6523 6.07512 16.8337 6.072Z" fill="#F6AF0F"/>
</g>
<defs>
<clipPath id="clip0_18813_36756">
<rect width="22" height="22" fill="white"/>
</clipPath>
</defs>
</svg>
